<svg width="94" height="94" viewBox="0 0 94 94" fill="none" xmlns="http://www.w3.org/2000/svg">
<path d="M63.1562 24.2344C63.1562 23.8305 62.8258 23.5 62.4219 23.5H27.1719C26.768 23.5 26.4375 23.8305 26.4375 24.2344V28.6406C26.4375 29.0445 26.768 29.375 27.1719 29.375H62.4219C62.8258 29.375 63.1562 29.0445 63.1562 28.6406V24.2344ZM62.4219 36.7188H27.1719C26.768 36.7188 26.4375 37.0492 26.4375 37.4531V41.8594C26.4375 42.2633 26.768 42.5938 27.1719 42.5938H62.4219C62.8258 42.5938 63.1562 42.2633 63.1562 41.8594V37.4531C63.1562 37.0492 62.8258 36.7188 62.4219 36.7188ZM44.0625 49.9375H27.1719C26.768 49.9375 26.4375 50.268 26.4375 50.6719V55.0781C26.4375 55.482 26.768 55.8125 27.1719 55.8125H44.0625C44.4664 55.8125 44.7969 55.482 44.7969 55.0781V50.6719C44.7969 50.268 44.4664 49.9375 44.0625 49.9375ZM39.6562 78.2109H19.0937V13.5859H70.5V45.1641C70.5 45.568 70.8305 45.8984 71.2344 45.8984H76.375C76.7789 45.8984 77.1094 45.568 77.1094 45.1641V9.91406C77.1094 8.28926 75.7967 6.97656 74.1719 6.97656H15.4219C13.7971 6.97656 12.4844 8.28926 12.4844 9.91406V81.8828C12.4844 83.5076 13.7971 84.8203 15.4219 84.8203H39.6562C40.0602 84.8203 40.3906 84.4898 40.3906 84.0859V78.9453C40.3906 78.5414 40.0602 78.2109 39.6562 78.2109ZM72.4094 71.3812C75.0715 68.967 76.7422 65.4787 76.7422 61.5957C76.7422 54.2979 70.8213 48.377 63.5234 48.377C56.2256 48.377 50.3047 54.2979 50.3047 61.5957C50.3047 65.4787 51.9754 68.967 54.6375 71.3812C49.4051 74.3646 45.8066 79.8908 45.5312 86.2615C45.5129 86.6746 45.8525 87.0234 46.2656 87.0234H50.681C51.0666 87.0234 51.3879 86.7205 51.4154 86.3258C51.7734 79.9734 57.0701 74.9062 63.5234 74.9062C69.9768 74.9062 75.2734 79.9734 75.6314 86.3258C75.6498 86.7113 75.9711 87.0234 76.3658 87.0234H80.7812C81.2035 87.0234 81.534 86.6746 81.5156 86.2615C81.2494 79.8816 77.6418 74.3646 72.4094 71.3812ZM63.5234 54.252C67.5809 54.252 70.8672 57.5383 70.8672 61.5957C70.8672 65.6531 67.5809 68.9395 63.5234 68.9395C59.466 68.9395 56.1797 65.6531 56.1797 61.5957C56.1797 57.5383 59.466 54.252 63.5234 54.252Z" fill="#FF5200"/>
</svg>
