<svg width="131" height="130" viewBox="0 0 131 130" fill="none" xmlns="http://www.w3.org/2000/svg">
<path d="M101.215 79.2934C101.215 51.3437 78.5572 28.686 50.6074 28.686C22.6577 28.686 -3.43384e-06 51.3437 -2.21212e-06 79.2934C-9.90401e-07 107.243 22.6577 129.901 50.6074 129.901C78.5572 129.901 101.215 107.243 101.215 79.2934Z" fill="#FF5200"/>
<path d="M10.1211 79.2905C10.1211 56.9311 28.2477 38.8046 50.6071 38.8046C72.9664 38.8046 91.093 56.9311 91.093 79.2905C91.093 101.65 72.9664 119.776 50.6071 119.776C28.2477 119.776 10.1211 101.65 10.1211 79.2905Z" fill="#FFEEE6"/>
<path fill-rule="evenodd" clip-rule="evenodd" d="M20.2422 79.291C20.2422 62.5208 33.8364 48.9266 50.6067 48.9266C67.3759 48.9266 80.9711 62.5207 80.9711 79.291C80.9711 96.0613 67.3759 109.656 50.6067 109.656C33.8364 109.656 20.2422 96.0613 20.2422 79.291Z" fill="#FF5200"/>
<path d="M30.3633 79.2919C30.3633 68.1117 39.4271 59.0489 50.6063 59.0489C61.7854 59.0489 70.8492 68.1117 70.8492 79.2919C70.8492 90.4721 61.7854 99.5348 50.6063 99.5349C39.4271 99.5349 30.3633 90.4721 30.3633 79.2919Z" fill="#FFEEE6"/>
<path fill-rule="evenodd" clip-rule="evenodd" d="M40.4883 79.2924C40.4883 73.7023 45.0197 69.1709 50.6098 69.1709C56.1989 69.1709 60.7313 73.7023 60.7313 79.2924C60.7313 84.8825 56.1989 89.4139 50.6098 89.4139C45.0197 89.4139 40.4883 84.8825 40.4883 79.2924Z" fill="#FF5200"/>
<path fill-rule="evenodd" clip-rule="evenodd" d="M130.258 18.5049L111.753 18.5049L93.248 37.0098L111.753 37.0098L130.258 18.5049Z" fill="#FF5200"/>
<path fill-rule="evenodd" clip-rule="evenodd" d="M93.248 18.5049L93.248 37.0098L111.753 18.5049L111.753 5.64116e-05L93.248 18.5049Z" fill="#FF5200"/>
<path d="M110.505 21.9345C110.505 22.4811 110.297 23.0291 109.88 23.4462L55.2256 78.0526C54.8213 78.4357 54.2835 78.6459 53.7266 78.6383C53.1698 78.6307 52.6378 78.406 52.2442 78.012C51.8506 77.618 51.6264 77.0859 51.6193 76.529C51.6123 75.9721 51.8229 75.4345 52.2064 75.0306L106.86 20.4228C107.159 20.1246 107.539 19.9217 107.954 19.8396C108.368 19.7576 108.797 19.8001 109.187 19.9619C109.577 20.1236 109.911 20.3973 110.145 20.7484C110.38 21.0995 110.505 21.5122 110.505 21.9345Z" fill="#FF5200"/>
</svg>
