<svg width="70" height="82" viewBox="0 0 70 82" fill="none" xmlns="http://www.w3.org/2000/svg">
<path d="M51.1562 18.2344C51.1562 17.8305 50.8258 17.5 50.4219 17.5H15.1719C14.768 17.5 14.4375 17.8305 14.4375 18.2344V22.6406C14.4375 23.0445 14.768 23.375 15.1719 23.375H50.4219C50.8258 23.375 51.1562 23.0445 51.1562 22.6406V18.2344ZM50.4219 30.7188H15.1719C14.768 30.7188 14.4375 31.0492 14.4375 31.4531V35.8594C14.4375 36.2633 14.768 36.5938 15.1719 36.5938H50.4219C50.8258 36.5938 51.1562 36.2633 51.1562 35.8594V31.4531C51.1562 31.0492 50.8258 30.7188 50.4219 30.7188ZM32.0625 43.9375H15.1719C14.768 43.9375 14.4375 44.268 14.4375 44.6719V49.0781C14.4375 49.482 14.768 49.8125 15.1719 49.8125H32.0625C32.4664 49.8125 32.7969 49.482 32.7969 49.0781V44.6719C32.7969 44.268 32.4664 43.9375 32.0625 43.9375ZM27.6562 72.2109H7.09375V7.58594H58.5V39.1641C58.5 39.568 58.8305 39.8984 59.2344 39.8984H64.375C64.7789 39.8984 65.1094 39.568 65.1094 39.1641V3.91406C65.1094 2.28926 63.7967 0.976562 62.1719 0.976562H3.42187C1.79707 0.976562 0.484375 2.28926 0.484375 3.91406V75.8828C0.484375 77.5076 1.79707 78.8203 3.42187 78.8203H27.6562C28.0602 78.8203 28.3906 78.4898 28.3906 78.0859V72.9453C28.3906 72.5414 28.0602 72.2109 27.6562 72.2109ZM60.4094 65.3812C63.0715 62.967 64.7422 59.4787 64.7422 55.5957C64.7422 48.2979 58.8213 42.377 51.5234 42.377C44.2256 42.377 38.3047 48.2979 38.3047 55.5957C38.3047 59.4787 39.9754 62.967 42.6375 65.3812C37.4051 68.3646 33.8066 73.8908 33.5312 80.2615C33.5129 80.6746 33.8525 81.0234 34.2656 81.0234H38.681C39.0666 81.0234 39.3879 80.7205 39.4154 80.3258C39.7734 73.9734 45.0701 68.9062 51.5234 68.9062C57.9768 68.9062 63.2734 73.9734 63.6314 80.3258C63.6498 80.7113 63.9711 81.0234 64.3658 81.0234H68.7812C69.2035 81.0234 69.534 80.6746 69.5156 80.2615C69.2494 73.8816 65.6418 68.3646 60.4094 65.3812ZM51.5234 48.252C55.5809 48.252 58.8672 51.5383 58.8672 55.5957C58.8672 59.6531 55.5809 62.9395 51.5234 62.9395C47.466 62.9395 44.1797 59.6531 44.1797 55.5957C44.1797 51.5383 47.466 48.252 51.5234 48.252Z" fill="black"/>
</svg>
