<svg width="94" height="94" viewBox="0 0 94 94" fill="none" xmlns="http://www.w3.org/2000/svg">
<path d="M88.7778 61.7006L83.5556 60.0556C83.1851 58.7773 82.6774 57.5429 82.0411 56.3739L84.6522 51.5172C84.7507 51.3319 84.7861 51.1195 84.7531 50.9122C84.7202 50.7049 84.6206 50.514 84.4694 50.3684L80.6833 46.6345C80.5377 46.4833 80.3468 46.3837 80.1395 46.3508C79.9322 46.3178 79.7198 46.3532 79.5344 46.4517L74.7039 49.0628C73.5223 48.3949 72.2699 47.8607 70.97 47.47L69.3772 42.2478C69.3105 42.053 69.1834 41.8847 69.0143 41.7672C68.8452 41.6498 68.643 41.5895 68.4372 41.595H63.215C63.0104 41.5968 62.8117 41.6635 62.6474 41.7855C62.4832 41.9076 62.3619 42.0786 62.3011 42.2739L60.7083 47.4961C59.3994 47.8849 58.1382 48.4192 56.9483 49.0889L52.2222 46.4778C52.0369 46.3793 51.8245 46.3439 51.6172 46.3769C51.4099 46.4098 51.219 46.5094 51.0733 46.6606L47 50.4206C46.8489 50.5662 46.7493 50.7571 46.7163 50.9644C46.6833 51.1717 46.7188 51.3841 46.8172 51.5695L49.4283 56.3217C48.7875 57.5067 48.2796 58.7589 47.9139 60.0556L42.6917 61.6484C42.4963 61.7092 42.3253 61.8304 42.2033 61.9947C42.0813 62.1589 42.0146 62.3576 42.0128 62.5622V67.7845C42.0146 67.989 42.0813 68.1878 42.2033 68.352C42.3253 68.5163 42.4963 68.6375 42.6917 68.6983L47.9139 70.2911C48.3341 71.6135 48.9035 72.8837 49.6111 74.0772L47 79.0384C46.9015 79.2237 46.8661 79.4361 46.8991 79.6434C46.9321 79.8507 47.0317 80.0416 47.1828 80.1872L50.9689 83.9734C51.1146 84.1245 51.3055 84.2241 51.5127 84.257C51.72 84.29 51.9324 84.2546 52.1178 84.1561L57.0006 81.545C58.154 82.1688 59.3707 82.6677 60.63 83.0333L62.2228 88.2556C62.2836 88.4509 62.4049 88.6219 62.5691 88.7439C62.7334 88.8659 62.9321 88.9327 63.1367 88.9345H68.3589C68.5635 88.9327 68.7622 88.8659 68.9265 88.7439C69.0907 88.6219 69.212 88.4509 69.2728 88.2556L70.8656 83.0333C72.1163 82.6671 73.3243 82.1682 74.4689 81.545L79.4039 84.1561C79.5893 84.2546 79.8016 84.29 80.0089 84.257C80.2162 84.2241 80.4071 84.1245 80.5528 83.9734L84.3389 80.1872C84.49 80.0416 84.5896 79.8507 84.6226 79.6434C84.6556 79.4361 84.6201 79.2237 84.5217 79.0384L81.9106 74.1295C82.5444 72.9776 83.0522 71.7608 83.425 70.5L88.6472 68.9072C88.8426 68.8464 89.0136 68.7252 89.1356 68.5609C89.2576 68.3967 89.3243 68.1979 89.3261 67.9934V62.6667C89.3452 62.4688 89.3028 62.2698 89.2047 62.0969C89.1066 61.924 88.9575 61.7856 88.7778 61.7006ZM65.7217 74.025C64.0076 74.0095 62.3364 73.4878 60.918 72.5253C59.4996 71.5628 58.3973 70.2026 57.7496 68.6155C57.102 67.0284 56.9379 65.2853 57.278 63.6053C57.6181 61.9252 58.4472 60.3832 59.661 59.1729C60.8749 57.9627 62.4194 57.1382 64.1005 56.8031C65.7816 56.468 67.5242 56.6373 69.1093 57.2897C70.6944 57.942 72.0514 59.0484 73.0096 60.4696C73.9679 61.8909 74.4846 63.5637 74.495 65.2778C74.4985 66.424 74.2752 67.5596 73.8382 68.6193C73.4011 69.6789 72.7589 70.6417 71.9483 71.4522C71.1378 72.2628 70.175 72.905 69.1154 73.3421C68.0557 73.7791 66.9201 74.0024 65.7739 73.9989L65.7217 74.025Z" fill="#FF5200"/>
<path d="M28.3306 71.6489C29.4218 71.4146 30.4257 70.8795 31.2286 70.1043C32.0315 69.329 32.6015 68.3445 32.8739 67.2622C34.5441 66.8231 36.1912 66.3002 37.8089 65.6955V62.5361C37.8198 62.0488 37.8989 61.5654 38.0439 61.1C36.2022 61.9033 34.3094 62.5836 32.3778 63.1366C31.8143 62.0213 30.9142 61.1116 29.8049 60.5363C28.6956 59.961 27.4334 59.7494 26.1971 59.9313C24.9609 60.1133 23.8132 60.6797 22.9167 61.5502C22.0203 62.4207 21.4204 63.5513 21.2022 64.7816H20.0272C15.4591 59.4786 12.8101 52.7916 12.5072 45.7989C16.0162 40.8808 20.4509 36.6945 25.5628 33.4744C26.3233 34.2524 27.2866 34.8018 28.3435 35.0603C29.4003 35.3187 30.5085 35.2759 31.5422 34.9366C34.7219 40.0877 38.8405 44.596 43.6839 48.2272C43.855 47.9289 44.0563 47.6489 44.2845 47.3916L46.6083 45.12C41.8942 41.6814 37.9093 37.3414 34.8845 32.3516C35.4763 31.4133 35.7929 30.3277 35.7983 29.2183V28.6439C45.3696 25.4494 55.7236 25.4769 65.2778 28.7222C64.5754 31.732 63.5694 34.6628 62.275 37.4694C62.5409 37.4041 62.8116 37.3604 63.0845 37.3389H66.8706C67.8285 35.0507 68.614 32.6941 69.2206 30.2889C70.3433 30.785 71.4139 31.3594 72.5106 31.96C74.1802 35.7748 75.0681 39.8856 75.1217 44.0494L77.7328 42.7178C78.4738 42.3279 79.2977 42.1219 80.135 42.1172H80.3439C79.9008 35.038 77.4078 28.2407 73.1687 22.5537C68.9296 16.8668 63.1277 12.536 56.47 10.0891C49.8124 7.64231 42.5867 7.1852 35.6738 8.77354C28.761 10.3619 22.4595 13.9271 17.5375 19.0345C12.6156 24.1419 9.28586 30.5709 7.9542 37.5378C6.62254 44.5046 7.34649 51.7085 10.0378 58.2711C12.7291 64.8337 17.2715 70.4716 23.1113 74.4975C28.9511 78.5234 35.836 80.7634 42.9267 80.9444C42.5289 79.6816 42.6414 78.3132 43.24 77.1322L43.9711 75.7483H43.7883C38.3665 75.7527 33.0377 74.3395 28.3306 71.6489ZM43.7622 13.0555C47.9586 13.0619 52.1109 13.9111 55.9728 15.5527C59.8347 17.1943 63.3275 19.595 66.2439 22.6122C66.2439 23.265 66.2439 23.9439 66.035 24.5966C55.5474 21.1402 44.2122 21.2411 33.7878 24.8839C32.9015 24.1256 31.8119 23.6444 30.6545 23.5C29.9555 21.3419 29.423 19.1334 29.0617 16.8939C33.5695 14.4197 38.6202 13.101 43.7622 13.0555ZM25.2233 19.2178C25.561 20.9103 25.9881 22.5837 26.5028 24.2311C25.6486 24.7659 24.9442 25.5089 24.4555 26.3903C23.9669 27.2717 23.71 28.2627 23.7089 29.2705V29.6622C19.7636 32.1445 16.1788 35.1582 13.0556 38.6183C14.5183 30.8478 18.8648 23.9177 25.2233 19.2178Z" fill="#FF5200"/>
</svg>
