<svg width="99" height="99" viewBox="0 0 99 99" fill="none" xmlns="http://www.w3.org/2000/svg">
<path d="M37.125 16.5L28.875 24.75L20.625 33L28.875 41.25L37.125 49.5L40.0125 46.6125L42.9 43.725L37.5375 38.3625L32.175 33L37.5375 27.6375L42.9 22.275L40.0125 19.3875L37.125 16.5Z" fill="black"/>
<path d="M61.875 16.5L58.9875 19.3875L56.1 22.275L61.4625 27.6375L66.825 33L61.4625 38.3625L56.1 43.725L58.9875 46.6125L61.875 49.5L70.125 41.25L78.375 33L70.125 24.75L61.875 16.5Z" fill="black"/>
<path d="M86.5301 78.7463L84.9296 72.4268C84.8272 72.0239 84.6443 71.6458 84.3919 71.3155C84.1395 70.9851 83.8229 70.7093 83.4611 70.5045C83.0975 70.2966 82.6961 70.1632 82.2803 70.1122C81.8646 70.0612 81.4428 70.0936 81.0398 70.2075L62.2628 75.504L49.5 70.125L65.6494 65.9876C66.7519 65.0041 67.5504 63.7261 67.9511 62.304L66.6848 57.75L33 61.875H12.375V86.625H33L51.3769 90.6015C52.3759 90.6924 53.3821 90.6688 54.3758 90.5314L84.3233 82.4711C85.1088 82.2608 85.781 81.7515 86.196 81.0521C86.4009 80.708 86.5359 80.3268 86.5932 79.9304C86.6506 79.534 86.6291 79.1302 86.5301 78.7421V78.7463ZM24.75 82.5H16.5V66H24.75V82.5ZM53.3033 86.5508C53.1174 86.5992 52.9261 86.6241 52.734 86.625C52.5746 86.6256 52.4155 86.609 52.2596 86.5755L33 82.3474V66.0825L63.2321 62.337L41.25 70.125L60.7241 79.332L62.0318 79.8559L63.3848 79.4723L81.1883 74.4521L82.2773 78.7504L53.3033 86.5508Z" fill="black"/>
</svg>
