<svg width="96" height="72" viewBox="0 0 96 72" fill="none" xmlns="http://www.w3.org/2000/svg">
<path d="M91.1997 31.156C93.4117 34.0493 93.4117 37.9553 91.1997 40.844C84.2324 49.9393 67.5164 68.6667 48.0004 68.6667C28.4844 68.6667 11.7684 49.9393 4.80104 40.844C3.72483 39.4586 3.14063 37.7543 3.14062 36C3.14063 34.2457 3.72483 32.5414 4.80104 31.156C11.7684 22.0606 28.4844 3.33331 48.0004 3.33331C67.5164 3.33331 84.2324 22.0606 91.1997 31.156V31.156Z" stroke="#FF5200" stroke-width="6" stroke-linecap="round" stroke-linejoin="round"/>
<path d="M48 50C55.732 50 62 43.732 62 36C62 28.268 55.732 22 48 22C40.268 22 34 28.268 34 36C34 43.732 40.268 50 48 50Z" stroke="#FF5200" stroke-width="6" stroke-linecap="round" stroke-linejoin="round"/>
</svg>
