<svg width="102" height="102" viewBox="0 0 102 102" fill="none" xmlns="http://www.w3.org/2000/svg">
<path d="M54.1865 12.75C55.0319 12.75 55.8427 13.0858 56.4404 13.6836C57.0382 14.2814 57.374 15.0921 57.374 15.9375V41.4375C57.374 42.2829 57.7099 43.0936 58.3076 43.6914C58.9054 44.2892 59.7162 44.625 60.5615 44.625C61.4069 44.625 62.2177 44.2892 62.8154 43.6914C63.4132 43.0936 63.749 42.2829 63.749 41.4375V22.3125C63.749 21.4671 64.0849 20.6564 64.6826 20.0586C65.2804 19.4608 66.0912 19.125 66.9365 19.125C67.7819 19.125 68.5927 19.4608 69.1904 20.0586C69.7882 20.6564 70.124 21.4671 70.124 22.3125V47.8125C70.124 48.6579 70.4599 49.4686 71.0576 50.0664C71.6554 50.6642 72.4662 51 73.3115 51C74.1569 51 74.9677 50.6642 75.5654 50.0664C76.1632 49.4686 76.499 48.6579 76.499 47.8125V35.0625C76.4982 34.2171 76.8332 33.406 77.4304 32.8077C78.0276 32.2093 78.838 31.8727 79.6833 31.8718C80.5287 31.871 81.3398 32.206 81.9382 32.8032C82.5366 33.4003 82.8732 34.2107 82.874 35.0561V60.5625C82.874 64.1899 81.2612 68.7926 78.8323 73.5547C76.448 78.2213 73.4773 82.6582 71.1759 85.833C69.6077 87.9941 67.013 89.25 64.157 89.25H52.4908C47.8434 89.25 43.5212 85.68 41.3664 80.58C37.6434 71.7825 31.7274 64.5469 26.8314 59.5553C24.8209 57.5055 22.7081 55.5586 20.501 53.7221L20.4118 53.652C21.113 52.9316 21.7505 52.4535 22.337 52.1348C23.2216 51.6244 24.2538 51.431 25.2632 51.5865C27.4307 51.8989 29.9807 53.6201 32.8048 56.4443C33.2506 56.8912 33.8191 57.1957 34.4381 57.3191C35.0572 57.4426 35.699 57.3795 36.2821 57.1378C36.8653 56.896 37.3635 56.4866 37.7137 55.9614C38.0638 55.4361 38.2502 54.8188 38.249 54.1875V22.3125C38.2431 21.4671 38.5733 20.654 39.1669 20.0521C39.7604 19.4501 40.5688 19.1086 41.4142 19.1027C42.2596 19.0968 43.0727 19.4269 43.6747 20.0205C44.2766 20.6141 44.6181 21.4225 44.624 22.2679V41.4375C44.624 42.2829 44.9599 43.0936 45.5576 43.6914C46.1554 44.2892 46.9662 44.625 47.8115 44.625C48.6569 44.625 49.4677 44.2892 50.0654 43.6914C50.6632 43.0936 50.999 42.2829 50.999 41.4375V22.3125V15.9375C50.999 15.0921 51.3349 14.2814 51.9326 13.6836C52.5304 13.0858 53.3412 12.75 54.1865 12.75ZM76.499 26.0419V22.3125C76.4997 20.7518 76.1184 19.2147 75.3884 17.8353C74.6583 16.4559 73.6018 15.2761 72.3109 14.399C71.02 13.5218 69.5341 12.974 67.9828 12.8032C66.4314 12.6325 64.8619 12.844 63.4112 13.4194C62.8586 11.3963 61.6564 9.61103 59.9895 8.33839C58.3227 7.06575 56.2837 6.37634 54.1865 6.37634C52.0894 6.37634 50.0504 7.06575 48.3836 8.33839C46.7167 9.61103 45.5145 11.3963 44.9619 13.4194C43.5112 12.844 41.9416 12.6325 40.3903 12.8032C38.839 12.974 37.3531 13.5218 36.0622 14.399C34.7713 15.2761 33.7147 16.4559 32.9847 17.8353C32.2547 19.2147 31.8734 20.7518 31.874 22.3125V47.481C30.146 46.362 28.2059 45.6111 26.1748 45.2753C23.7936 44.9229 21.3629 45.3714 19.2643 46.5503C17.0458 47.7615 15.0695 49.7378 13.2845 52.4153C12.8237 53.1039 12.6491 53.945 12.7979 54.7602C12.9466 55.5754 13.407 56.3006 14.0814 56.7821L14.1069 56.8013L14.2153 56.8778L14.6743 57.2284C17.3512 59.3274 19.8895 61.5974 22.2733 64.0241C26.8697 68.7034 32.1992 75.2824 35.495 83.0662C38.2809 89.658 44.4519 95.625 52.4908 95.625H64.157C68.8682 95.625 73.4645 93.5404 76.3333 89.5687C78.7367 86.2601 81.9178 81.5299 84.5124 76.449C87.0624 71.4637 89.249 65.739 89.249 60.5625V35.0561C89.2488 33.5264 88.8816 32.0191 88.1783 30.6607C87.4749 29.3023 86.4559 28.1324 85.2069 27.2493C83.9578 26.3663 82.5151 25.7957 80.9999 25.5856C79.4847 25.3755 77.9413 25.532 76.499 26.0419ZM76.499 47.8125V47.8507V47.8125Z" fill="#FF5200"/>
</svg>
