<svg width="61" height="61" viewBox="0 0 61 61" fill="none" xmlns="http://www.w3.org/2000/svg">
<path d="M54.0497 2.58106C54.1574 2.47285 54.2376 2.34035 54.2835 2.1947C54.3293 2.04905 54.3395 1.89452 54.3131 1.74411C54.2868 1.59371 54.2247 1.45184 54.1321 1.33044C54.0395 1.20904 53.919 1.11167 53.7809 1.04653C51.6509 0.0405997 49.2616 -0.281205 46.9413 0.125309C44.621 0.531822 42.4835 1.64672 40.8222 3.31687C37.5854 6.57465 36.455 11.691 37.9648 15.9687L15.9686 37.9649C14.7466 37.5341 13.4594 37.3174 12.1637 37.3244C8.89637 37.3244 5.72818 38.6244 3.47309 40.8929C1.81773 42.5411 0.698883 44.651 0.263149 46.946C-0.172586 49.241 0.0951171 51.6141 1.03118 53.7543C1.09254 53.8976 1.18823 54.0236 1.3098 54.1211C1.43138 54.2186 1.5751 54.2847 1.72827 54.3136C1.88145 54.3424 2.03936 54.3331 2.18807 54.2864C2.33679 54.2397 2.47172 54.1572 2.58096 54.046L9.23568 47.357C9.67412 46.9147 10.3813 46.8556 10.7473 47.2273L13.6201 50.2335C14.0375 50.6548 14.0185 51.3048 13.5781 51.749L6.94818 58.4208C6.84043 58.5289 6.76025 58.6612 6.71439 58.8067C6.66854 58.9522 6.65836 59.1067 6.68471 59.2569C6.71106 59.4072 6.77318 59.5489 6.86582 59.6702C6.95845 59.7914 7.07889 59.8886 7.21696 59.9535C8.7596 60.6894 10.4469 61.0723 12.1561 61.0743C15.1527 61.0743 17.9987 59.8696 20.1756 57.6812C23.4125 54.4253 24.5429 49.309 23.0312 45.0313L45.0274 23.0332C46.2501 23.4638 47.5379 23.6805 48.8342 23.6737C52.1015 23.6737 55.2697 22.3737 57.5248 20.1052C59.1802 18.457 60.299 16.3471 60.7347 14.0521C61.1705 11.7571 60.9028 9.384 59.9667 7.24375C59.9054 7.10047 59.8097 6.9745 59.6881 6.87697C59.5665 6.77944 59.4228 6.71334 59.2696 6.68451C59.1164 6.65569 58.9585 6.66502 58.8098 6.71169C58.6611 6.75835 58.5262 6.84092 58.4169 6.95209L51.7622 13.6411C51.5566 13.8399 51.2808 13.9494 50.9948 13.9458C50.7089 13.9422 50.4359 13.8259 50.2353 13.6221L47.3778 10.7646C47.2759 10.6667 47.1947 10.5493 47.1393 10.4193C47.0838 10.2894 47.0551 10.1495 47.0549 10.0082C47.0547 9.8669 47.0831 9.727 47.1382 9.59689C47.1934 9.46679 47.2742 9.34915 47.3759 9.25103L54.0497 2.58106ZM46.0282 12.1123L48.8857 14.9698C50.0275 16.1173 51.9833 16.1231 53.1137 14.9869L58.6991 9.37493C59.1415 11.0238 59.1411 12.7602 58.698 14.4089C58.2548 16.0576 57.3846 17.5602 56.1752 18.7651C54.2746 20.6771 51.6021 21.7713 48.8361 21.7713C47.5341 21.7713 46.3008 21.5273 45.1704 21.0469C44.9957 20.9725 44.8027 20.952 44.6162 20.988C44.4298 21.024 44.2583 21.1149 44.1239 21.249L21.2489 44.124C21.115 44.2578 21.0241 44.4284 20.9877 44.6142C20.9514 44.7999 20.9713 44.9923 21.0449 45.1667C22.5756 48.8076 21.6435 53.5065 18.8279 56.3392C17.6148 57.5698 16.0874 58.444 14.4119 58.8668C12.7364 59.2897 10.9771 59.2448 9.32528 58.7373L14.9316 53.0948C16.1153 51.9034 16.1344 50.0562 14.9868 48.9048L12.116 45.8987C11.0085 44.7835 9.03934 44.8521 7.88796 46.0169L2.30265 51.6289C1.86023 49.98 1.8606 48.2436 2.30373 46.5949C2.74687 44.9462 3.61707 43.4436 4.82652 42.2387C6.72706 40.3267 9.39962 39.2325 12.1656 39.2325C13.4676 39.2325 14.7009 39.4765 15.8313 39.9569C16.0059 40.0318 16.199 40.0526 16.3856 40.0166C16.5722 39.9806 16.7437 39.8894 16.8778 39.7548L39.7528 16.8798C39.8867 16.746 39.9776 16.5754 40.014 16.3896C40.0503 16.2039 40.0304 16.0115 39.9568 15.8371C38.4261 12.1962 39.3582 7.49537 42.1738 4.66268C43.3865 3.43334 44.913 2.55983 46.5873 2.13705C48.2616 1.71428 50.0197 1.7584 51.6707 2.26462L46.0282 7.90903C45.7492 8.18331 45.5276 8.51041 45.3763 8.87124C45.225 9.23207 45.1471 9.61941 45.1471 10.0107C45.1471 10.4019 45.225 10.7893 45.3763 11.1501C45.5276 11.5109 45.7492 11.838 46.0282 12.1123Z" fill="#FF5200"/>
<path d="M55.6816 58.4208C55.4696 58.6247 55.1867 58.7383 54.8926 58.7376C54.5984 58.7369 54.3161 58.6219 54.1051 58.417L34.9854 39.3545C34.8032 39.1916 34.5655 39.1047 34.3212 39.1118C34.0768 39.1189 33.8445 39.2193 33.6721 39.3925C33.4996 39.5657 33.4001 39.7985 33.3941 40.0428C33.388 40.2872 33.4759 40.5245 33.6396 40.706L52.7574 59.7647C53.3293 60.3385 54.0879 60.655 54.8962 60.655C55.7044 60.655 56.4631 60.3385 57.0464 59.7514L59.7705 56.9054C60.049 56.6305 60.2701 56.3031 60.4209 55.9421C60.5717 55.581 60.6493 55.1936 60.6491 54.8024C60.649 54.4111 60.571 54.0238 60.4199 53.6629C60.2687 53.302 60.0473 52.9748 59.7686 52.7002L40.7061 33.6377C40.5263 33.4641 40.2856 33.368 40.0356 33.3702C39.7857 33.3723 39.5467 33.4726 39.37 33.6493C39.1932 33.826 39.093 34.0651 39.0908 34.315C39.0887 34.5649 39.1847 34.8056 39.3584 34.9854L58.4189 54.046C58.8555 54.4844 58.8555 55.1211 58.4056 55.5748L55.6816 58.4208Z" fill="#FF5200"/>
<path d="M11.1591 5.99703L5.44032 0.278284C5.26158 0.0996005 5.01919 -0.000778198 4.76646 -0.000778198C4.51372 -0.000778198 4.27134 0.0996005 4.0926 0.278284L0.2801 4.09078C0.101416 4.26952 0.0010376 4.51191 0.0010376 4.76464C0.0010376 5.01738 0.101416 5.25977 0.2801 5.4385L5.99885 11.1573C6.17783 11.3353 6.41989 11.4353 6.67232 11.4357C6.92474 11.4361 7.16709 11.3367 7.34657 11.1592L8.57801 9.92581L23.1532 24.501C23.241 24.5921 23.3461 24.6649 23.4623 24.715C23.5785 24.7651 23.7035 24.7916 23.8301 24.7929C23.9566 24.7941 24.0821 24.7702 24.1993 24.7224C24.3165 24.6747 24.4231 24.6041 24.5127 24.5147C24.6023 24.4253 24.6732 24.319 24.7213 24.202C24.7694 24.0849 24.7937 23.9594 24.7928 23.8329C24.7918 23.7063 24.7657 23.5812 24.716 23.4649C24.6662 23.3485 24.5937 23.2432 24.5028 23.1552L9.92572 8.5781L11.1572 7.34666C11.246 7.25825 11.3166 7.15317 11.3648 7.03744C11.413 6.92171 11.438 6.79761 11.4381 6.67224C11.4383 6.54687 11.4138 6.4227 11.3659 6.30684C11.318 6.19097 11.2477 6.0857 11.1591 5.99703ZM6.67176 9.13663L2.30072 4.7656L4.76551 2.30082L9.13654 6.67185L6.67176 9.13663Z" fill="#FF5200"/>
</svg>
