<svg width="94" height="93" viewBox="0 0 94 93" fill="none" xmlns="http://www.w3.org/2000/svg">
<g clip-path="url(#clip0_991_4323)">
<path d="M22 50V85H15V50H22Z" fill="black"/>
<path d="M6.83333 50.3691V85.2401H-1V50.3691H6.83333Z" fill="black"/>
<path d="M90.0833 50.3692V58.1183H82.25V85.2402H74.4166V58.1183H66.5833V50.3692H90.0833Z" fill="black"/>
<path d="M47 42.6201C52.4878 42.649 57.8588 44.1906 62.51 47.0719L68.1774 41.4538C61.9574 37.184 54.5709 34.8879 47 34.871C39.5298 34.8855 32.2423 37.1565 26.1124 41.3802L31.7877 47.0099C36.3443 44.1696 41.6143 42.6488 47 42.6201Z" fill="black"/>
<path d="M47 27.1218C56.6442 27.1417 66.027 30.2248 73.7665 35.9171L79.3556 30.3765C70.1041 23.2574 58.7209 19.3861 47 19.3727C35.3807 19.3873 24.0982 23.235 14.9382 30.3067L20.5233 35.8473C28.1724 30.201 37.4561 27.1415 47 27.1218Z" fill="black"/>
<path d="M47 11.6237C60.7987 11.6258 74.1835 16.2868 84.9408 24.8359L90.5298 19.2992C78.3169 9.3391 62.9849 3.88667 47.1569 3.87465C31.3288 3.86264 15.9884 9.29179 3.76001 19.2333L9.34909 24.77C20.0156 16.2668 33.3011 11.628 47 11.6237Z" fill="black"/>
<path d="M47 50.3692C43.5141 50.3692 40.1065 51.3918 37.2081 53.3076C34.3097 55.2234 32.0506 57.9465 30.7166 61.1324C29.3826 64.3183 29.0336 67.824 29.7137 71.2062C30.3937 74.5883 32.0724 77.695 34.5373 80.1334C37.0022 82.5718 40.1426 84.2324 43.5615 84.9052C46.9805 85.5779 50.5243 85.2326 53.7448 83.913C56.9654 82.5933 59.718 80.3586 61.6547 77.4913C63.5913 74.6241 64.625 71.2531 64.625 67.8047C64.625 63.1805 62.7681 58.7457 59.4628 55.4759C56.1574 52.2062 51.6744 50.3692 47 50.3692ZM47 77.4911C45.0634 77.4911 43.1703 76.923 41.56 75.8586C39.9498 74.7943 38.6948 73.2815 37.9537 71.5115C37.2126 69.7416 37.0187 67.7939 37.3965 65.915C37.7743 64.036 38.7069 62.31 40.0763 60.9554C41.4456 59.6007 43.1903 58.6782 45.0897 58.3044C46.9891 57.9307 48.9579 58.1225 50.7471 58.8556C52.5363 59.5888 54.0656 60.8303 55.1415 62.4232C56.2174 64.0161 56.7917 65.8889 56.7917 67.8047C56.7917 70.3737 55.7601 72.8374 53.9238 74.654C52.0875 76.4705 49.5969 77.4911 47 77.4911Z" fill="black"/>
</g>
<defs>
<clipPath id="clip0_991_4323">
<rect width="94" height="92.9893" fill="white"/>
</clipPath>
</defs>
</svg>
