<svg width="509" height="87" viewBox="0 0 509 87" fill="none" xmlns="http://www.w3.org/2000/svg">
<path d="M27.3794 85.4647H0V0H27.3794V41.9647V85.4647ZM115.659 85.4647L62.9471 41.9647L115.659 0H77.0206L27.3794 41.9647L77.0206 85.4647H115.659ZM239.762 55.5265V0H212.382V50.6647C212.382 61.4118 208.288 64.7382 197.029 64.7382H170.162C158.903 64.7382 154.809 61.4118 154.809 50.6647V0H127.685V55.5265C127.685 76.7647 138.944 87 164.021 87H203.171C228.247 87 239.762 76.7647 239.762 55.5265ZM288.379 85.4647H261V0H288.379V41.9647V85.4647ZM376.659 85.4647L323.947 41.9647L376.659 0H338.021L288.379 41.9647L338.021 85.4647H376.659ZM454.447 0H430.394L376.915 85.4647H408.388L417.344 70.6235H468.009L476.965 85.4647H508.438L454.447 0ZM426.3 53.4794L442.165 26.3559L458.029 53.4794H426.3Z" fill="url(#paint0_linear_84_7043)"/>
<defs>
<linearGradient id="paint0_linear_84_7043" x1="0.78556" y1="89.7034" x2="458.669" y2="4.83977" gradientUnits="userSpaceOnUse">
<stop stop-color="#FF6000"/>
<stop offset="1" stop-color="#FF5800"/>
</linearGradient>
</defs>
</svg>
