<svg width="63" height="63" viewBox="0 0 63 63" fill="none" xmlns="http://www.w3.org/2000/svg">
<path d="M10.5029 38.8614C10.1999 38.0557 9.95635 37.2382 9.76031 36.4147L1.45567 35.1351V27.2619L9.7544 25.9823C10.295 23.6837 11.2098 21.4503 12.487 19.3886L7.52675 12.6292L13.0988 7.06636L19.8768 12.0071C21.95 10.7334 24.1895 9.8211 26.4944 9.282L27.2726 1H36.1653L36.9495 9.282C39.2484 9.82702 41.482 10.7334 43.5552 12.0071L50.3272 7.05451L55.9112 12.6173L50.9452 19.3827C52.2224 21.4443 53.131 23.6659 53.6778 25.9645L61.9943 27.2441L62 35.1114L53.6778 36.397C53.1372 38.6896 52.2281 40.9112 50.9452 42.9728L55.923 49.7441L50.345 55.3129L43.5552 50.3543C41.4879 51.6221 39.2662 52.5344 36.9673 53.0735H36.9613L35.6842 61.3733L27.2904 61.3792L26.5003 53.0794C25.538 52.8543 24.5934 52.564 23.6608 52.2086" stroke="#FF5200" stroke-width="2" stroke-miterlimit="10" stroke-linecap="round" stroke-linejoin="round"/>
<path d="M21.037 35.591C20.8445 35.1287 20.6806 34.6522 20.5485 34.1718C19.4999 30.2455 20.5164 25.8818 23.6083 22.7981C27.0817 19.3341 32.171 18.477 36.4433 20.2268L29.1362 27.514L35.5803 33.9408L42.8874 26.6533C44.6455 30.9178 43.7861 35.9929 40.3126 39.4569C37.2208 42.5403 32.8448 43.5541 28.9042 42.5048C28.4264 42.3768 27.9485 42.2133 27.4778 42.0211L8.33055 61.1162C7.14889 62.2946 5.23276 62.2946 4.05109 61.1162L1.88642 58.9574C0.704525 57.779 0.704525 55.8681 1.88642 54.6896L21.037 35.591Z" stroke="#FF5200" stroke-width="2" stroke-miterlimit="10" stroke-linecap="round" stroke-linejoin="round"/>
</svg>
