<svg width="260" height="56" viewBox="0 0 260 56" fill="none" xmlns="http://www.w3.org/2000/svg">
<path d="M6.91832 52.7216H6.95898L9.16042 45.4331H12.1516V55.8482H9.8899V49.1375L9.84925 49.1306L7.70072 55.8482H6.18319L4.07386 49.2322L4.03319 49.2389V55.8482H1.77148V45.4331H4.73721L6.91832 52.7216Z" fill="black"/>
<path d="M16.5239 55.8502H14.2695V45.4331H16.5239V55.8502Z" fill="black"/>
<path d="M26.7698 55.8475H24.5137L20.9469 49.2929L20.9057 49.307V55.8475H18.6445V45.4299H20.9057L24.4743 51.9756L24.5137 51.9618V45.4299H26.7698V55.8475Z" fill="black"/>
<path d="M31.1411 55.8502H28.8867V45.4331H31.1411V55.8502Z" fill="black"/>
<path d="M41.3753 55.8475H39.119L35.5516 49.2929L35.511 49.307V55.8475H33.25V45.4299H35.511L39.0798 51.9756L39.119 51.9618V45.4299H41.3753V55.8475Z" fill="black"/>
<path d="M51.0481 54.4103C50.7098 54.8488 50.2311 55.2224 49.6143 55.5336C48.999 55.8419 48.2075 55.9985 47.2385 55.9985C46.0301 55.9985 45.049 55.6009 44.2953 54.8113C43.5398 54.0177 43.1641 52.9905 43.1641 51.7276V49.5527C43.1641 48.2981 43.5312 47.2744 44.2647 46.4759C44.9978 45.6793 45.9429 45.28 47.0998 45.28C48.344 45.28 49.2844 45.5779 49.92 46.1715C50.5557 46.7652 50.8619 47.5773 50.8396 48.6079L50.8261 48.6508H48.705C48.705 48.14 48.5786 47.7632 48.3236 47.5119C48.0689 47.2655 47.6848 47.1403 47.1735 47.1403C46.6454 47.1403 46.2216 47.3642 45.9002 47.8061C45.5791 48.2518 45.4182 48.8264 45.4182 49.5391V51.7276C45.4182 52.4519 45.5791 53.0354 45.8983 53.4758C46.2163 53.918 46.6643 54.138 47.2385 54.138C47.6556 54.138 47.9822 54.102 48.221 54.0317C48.4589 53.9597 48.6467 53.863 48.7854 53.7459V51.8862H47.0592V50.2824H51.0481V54.4103Z" fill="black"/>
<path d="M57.9606 50.2888C57.687 49.8789 57.4854 49.4992 57.3536 49.1512C57.2238 48.802 57.1574 48.4493 57.1574 48.0934C57.1574 47.1901 57.4016 46.4963 57.8923 46.0095C58.3846 45.5242 59.058 45.28 59.9161 45.28C60.6233 45.28 61.2009 45.5242 61.6455 46.0095C62.0879 46.4963 62.3104 47.088 62.3104 47.7837C62.3104 48.2942 62.2285 48.7351 62.0661 49.1048C61.9032 49.4747 61.6573 49.802 61.3278 50.0873L60.6579 50.5882L62.23 52.5276C62.3821 52.2573 62.5017 51.9599 62.5869 51.6393C62.6741 51.3194 62.7207 50.9872 62.7207 50.64H64.4584C64.4584 51.3404 64.3834 51.9804 64.2313 52.5602C64.0792 53.1382 63.8364 53.6509 63.5016 54.0951L64.9013 55.812L64.8858 55.8468H62.4179L61.9223 55.2478C61.5341 55.5043 61.1465 55.6937 60.762 55.8155C60.3757 55.9381 59.9519 55.998 59.4867 55.998C58.5145 55.998 57.7382 55.7242 57.1643 55.1824C56.5881 54.6372 56.3008 53.9279 56.3008 53.0489C56.3008 52.4983 56.4272 52.0267 56.6787 51.6358C56.9301 51.2491 57.3178 50.8272 57.8391 50.3746L57.9606 50.2888ZM59.6408 54.138C59.8321 54.138 60.0251 54.117 60.2218 54.0741C60.4185 54.0292 60.6079 53.9639 60.7909 53.8729L59.0715 51.7843C58.8885 51.9545 58.7587 52.1281 58.6835 52.3056C58.6066 52.4827 58.5691 52.6753 58.5691 52.8854C58.5691 53.2519 58.6732 53.5528 58.8802 53.7853C59.0884 54.0211 59.34 54.138 59.6408 54.138ZM59.1127 48.0641C59.1127 48.2397 59.1501 48.4202 59.2251 48.6025C59.3008 48.7884 59.4149 48.9845 59.5671 49.1941L59.8661 48.9933C60.1175 48.8224 60.2867 48.6557 60.372 48.4942C60.4592 48.3304 60.5023 48.1519 60.5023 47.9553C60.5023 47.7368 60.4474 47.5459 60.3326 47.3842C60.2184 47.2226 60.0526 47.1398 59.8355 47.1398C59.6151 47.1398 59.4407 47.2295 59.3089 47.4101C59.1756 47.5871 59.1127 47.8061 59.1127 48.0641Z" fill="black"/>
<path d="M78.293 55.8475H76.037V51.6536H72.4289V55.8475H70.168V45.4299H72.4289V49.7938H76.037V45.4299H78.293V55.8475Z" fill="black"/>
<path d="M85.9738 51.3918H82.5383V53.9882H86.6555V55.8487H80.2773V45.4331H86.6622V47.2928H82.5383V49.5316H85.9738V51.3918Z" fill="black"/>
<path d="M93.4526 53.8247H90.554L89.9916 55.8499H87.6094L90.7899 45.4348H91.9998V45.4415L92.0066 45.4348H93.2187L96.4027 55.8499H94.0219L93.4526 53.8247ZM91.0768 51.9647H92.9294L92.0206 48.7316H91.9794L91.0768 51.9647Z" fill="black"/>
<path d="M100.498 53.0213L100.566 53.3998H100.606L100.672 53.0491L102.607 45.4299H104.976L101.817 55.847H99.3733L96.2285 45.4299H98.5909L100.498 53.0213Z" fill="black"/>
<path d="M109.751 49.9812H109.792L111.732 45.4299H114.182L110.876 52.1838V55.8475H108.62V52.077L105.367 45.4299H107.816L109.751 49.9812Z" fill="black"/>
<path d="M121.582 55.8502H119.328V45.4331H121.582V55.8502Z" fill="black"/>
<path d="M131.828 55.8475H129.572L126.005 49.2929L125.964 49.307V55.8475H123.703V45.4299H125.964L129.533 51.9756L129.572 51.9618V45.4299H131.828V55.8475Z" fill="black"/>
<path d="M133.801 55.8475V45.4299H137.367C138.514 45.4299 139.474 45.8295 140.244 46.6292C141.018 47.4278 141.403 48.4515 141.403 49.7006V51.5746C141.403 52.8292 141.018 53.8563 140.244 54.6514C139.474 55.448 138.514 55.8475 137.367 55.8475H133.801ZM136.062 47.2902V53.987H137.367C137.881 53.987 138.304 53.7619 138.636 53.3145C138.969 52.8652 139.135 52.2874 139.135 51.5746V49.687C139.135 48.9852 138.969 48.412 138.636 47.9627C138.304 47.5141 137.881 47.2902 137.367 47.2902H136.062Z" fill="black"/>
<path d="M151.172 45.4331V52.1865C151.172 53.3776 150.801 54.3138 150.059 54.9863C149.319 55.6623 148.353 55.9999 147.162 55.9999C145.963 55.9999 144.99 55.6623 144.244 54.9863C143.5 54.3138 143.127 53.3776 143.127 52.1865V45.4331H145.395V52.1865C145.395 52.8304 145.552 53.3172 145.865 53.6459C146.178 53.9747 146.61 54.1394 147.162 54.1394C147.711 54.1394 148.138 53.9761 148.444 53.6494C148.75 53.3226 148.902 52.8353 148.902 52.1865V45.4331H151.172Z" fill="black"/>
<path d="M158.119 53.085C158.119 52.7133 158.004 52.4295 157.777 52.2319C157.55 52.0339 157.138 51.8223 156.54 51.5969C155.329 51.1789 154.431 50.731 153.846 50.2565C153.258 49.7815 152.966 49.0986 152.966 48.2069C152.966 47.3348 153.306 46.6275 153.988 46.0892C154.672 45.5501 155.54 45.28 156.593 45.28C157.703 45.28 158.597 45.5589 159.276 46.1146C159.954 46.6685 160.283 47.4535 160.259 48.4636L160.247 48.5085H158.05C158.05 48.0177 157.926 47.6596 157.676 47.4377C157.427 47.2157 157.051 47.1055 156.547 47.1055C156.136 47.1055 155.811 47.2125 155.576 47.4276C155.338 47.6411 155.22 47.906 155.22 48.2227C155.22 48.5255 155.342 48.7699 155.586 48.9536C155.829 49.1381 156.281 49.3682 156.946 49.6454C158.076 50.0035 158.93 50.439 159.51 50.9534C160.089 51.4696 160.38 52.1735 160.38 53.0714C160.38 53.9868 160.045 54.7045 159.375 55.2224C158.709 55.7405 157.82 55.9985 156.712 55.9985C155.611 55.9985 154.678 55.7193 153.911 55.1639C153.145 54.6098 152.774 53.7338 152.798 52.5431L152.81 52.5002H155.013C155.013 53.1059 155.152 53.5363 155.43 53.7888C155.709 54.0455 156.138 54.1728 156.712 54.1728C157.185 54.1728 157.54 54.0727 157.772 53.8719C158.003 53.6739 158.119 53.4105 158.119 53.085Z" fill="black"/>
<path d="M168.817 47.2928H166.24V55.8502H163.979V47.2928H161.449V45.4331H168.817V47.2928Z" fill="black"/>
<path d="M172.425 51.855V55.8475H170.164V45.4299H173.557C174.685 45.4299 175.579 45.7089 176.24 46.2665C176.9 46.8258 177.231 47.5895 177.231 48.5548C177.231 49.0954 177.098 49.5583 176.833 49.945C176.567 50.3309 176.175 50.6454 175.657 50.8883C176.255 51.0708 176.686 51.3717 176.948 51.7931C177.207 52.2166 177.337 52.7414 177.337 53.373V54.0299C177.337 54.3002 177.375 54.6119 177.452 54.9592C177.527 55.3069 177.659 55.5548 177.846 55.7025V55.8475H175.512C175.332 55.699 175.216 55.4396 175.163 55.066C175.11 54.6943 175.083 54.3451 175.083 54.0149V53.3868C175.083 52.8911 174.96 52.5105 174.714 52.2491C174.469 51.9857 174.111 51.855 173.637 51.855H172.425ZM172.425 49.9953H173.57C174.025 49.9953 174.374 49.8831 174.614 49.6611C174.856 49.4392 174.976 49.1213 174.976 48.7062C174.976 48.2833 174.85 47.9407 174.604 47.6808C174.357 47.4194 174.006 47.2902 173.557 47.2902H172.425V49.9953Z" fill="black"/>
<path d="M182.581 49.9812H182.622L184.562 45.4299H187.011L183.706 52.1838V55.8475H181.45V52.077L178.197 45.4299H180.646L182.581 49.9812Z" fill="black"/>
<path d="M194.275 51.855V55.8475H192.014V45.4299H195.406C196.534 45.4299 197.428 45.7089 198.089 46.2665C198.751 46.8258 199.081 47.5895 199.081 48.5548C199.081 49.0954 198.947 49.5583 198.682 49.945C198.416 50.3309 198.024 50.6454 197.507 50.8883C198.105 51.0708 198.536 51.3717 198.797 51.7931C199.057 52.2166 199.187 52.7414 199.187 53.373V54.0299C199.187 54.3002 199.224 54.6119 199.301 54.9592C199.377 55.3069 199.508 55.5548 199.696 55.7025V55.8475H197.361C197.182 55.699 197.068 55.4396 197.013 55.066C196.96 54.6943 196.932 54.3451 196.932 54.0149V53.3868C196.932 52.8911 196.809 52.5105 196.563 52.2491C196.319 51.9857 195.96 51.855 195.486 51.855H194.275ZM194.275 49.9953H195.42C195.874 49.9953 196.223 49.8831 196.464 49.6611C196.705 49.4392 196.826 49.1213 196.826 48.7062C196.826 48.2833 196.7 47.9407 196.454 47.6808C196.206 47.4194 195.856 47.2902 195.406 47.2902H194.275V49.9953Z" fill="#E9531D"/>
<path d="M209.283 51.5759C209.283 52.8598 208.9 53.9175 208.141 54.7489C207.381 55.582 206.386 55.9985 205.159 55.9985C203.925 55.9985 202.921 55.582 202.156 54.7489C201.387 53.9175 201.004 52.8598 201.004 51.5759V49.7019C201.004 48.4234 201.387 47.3671 202.153 46.5326C202.917 45.698 203.915 45.28 205.145 45.28C206.367 45.28 207.364 45.698 208.131 46.5326C208.9 47.3671 209.283 48.4234 209.283 49.7019V51.5759ZM207.027 49.6868C207.027 48.9435 206.863 48.3344 206.535 47.8557C206.207 47.3792 205.744 47.1403 205.145 47.1403C204.535 47.1403 204.067 47.3773 203.744 47.8522C203.421 48.3275 203.258 48.9401 203.258 49.6868V51.5759C203.258 52.3315 203.422 52.9456 203.75 53.4221C204.077 53.899 204.549 54.138 205.159 54.138C205.752 54.138 206.212 53.899 206.538 53.4221C206.865 52.9456 207.027 52.3315 207.027 51.5759V49.6868Z" fill="#E9531D"/>
<path d="M211.084 55.8475V45.4299H214.275C215.485 45.4299 216.429 45.6694 217.104 46.1493C217.781 46.6292 218.117 47.3434 218.117 48.2914C218.117 48.7871 218.01 49.2276 217.796 49.6128C217.583 49.9953 217.247 50.2875 216.793 50.4802C217.372 50.6163 217.803 50.8932 218.081 51.3112C218.36 51.7312 218.5 52.2146 218.5 52.7638C218.5 53.7809 218.181 54.5481 217.543 55.068C216.904 55.5873 215.99 55.8475 214.798 55.8475H211.084ZM213.346 49.7733H214.236C214.781 49.7733 215.186 49.6715 215.455 49.4685C215.721 49.2656 215.856 48.9642 215.856 48.5637C215.856 48.1213 215.726 47.7979 215.468 47.5945C215.21 47.3915 214.812 47.2902 214.275 47.2902H213.346V49.7733ZM213.346 51.3751V53.987H214.798C215.28 53.987 215.641 53.8872 215.882 53.6842C216.123 53.4793 216.244 53.1695 216.244 52.7483C216.244 52.3044 216.138 51.9687 215.926 51.7401C215.714 51.5127 215.365 51.3907 214.878 51.3751H214.805H213.346Z" fill="#E9531D"/>
<path d="M228.353 51.5759C228.353 52.8598 227.971 53.9175 227.21 54.7489C226.451 55.582 225.456 55.9985 224.229 55.9985C222.995 55.9985 221.992 55.582 221.226 54.7489C220.457 53.9175 220.074 52.8598 220.074 51.5759V49.7019C220.074 48.4234 220.455 47.3671 221.223 46.5326C221.985 45.698 222.985 45.28 224.215 45.28C225.437 45.28 226.434 45.698 227.201 46.5326C227.969 47.3671 228.353 48.4234 228.353 49.7019V51.5759ZM226.097 49.6868C226.097 48.9435 225.933 48.3344 225.605 47.8557C225.277 47.3792 224.814 47.1403 224.215 47.1403C223.606 47.1403 223.137 47.3773 222.814 47.8522C222.491 48.3275 222.328 48.9401 222.328 49.6868V51.5759C222.328 52.3315 222.493 52.9456 222.821 53.4221C223.147 53.899 223.619 54.138 224.229 54.138C224.822 54.138 225.282 53.899 225.608 53.4221C225.935 52.9456 226.097 52.3315 226.097 51.5759V49.6868Z" fill="#E9531D"/>
<path d="M236.753 47.2928H234.175V55.8502H231.912V47.2928H229.385V45.4331H236.753V47.2928Z" fill="#E9531D"/>
<path d="M240.497 55.8502H238.242V45.4331H240.497V55.8502Z" fill="#E9531D"/>
<path d="M250.098 52.3352L250.109 52.3781C250.128 53.5658 249.814 54.4672 249.17 55.0798C248.525 55.6924 247.611 56.0002 246.43 56.0002C245.225 56.0002 244.257 55.6066 243.528 54.8184C242.798 54.0319 242.434 53.0008 242.434 51.7278V49.5529C242.434 48.2848 242.786 47.2557 243.486 46.466C244.191 45.6763 245.119 45.282 246.276 45.282C247.512 45.282 248.467 45.5898 249.142 46.2046C249.819 46.8204 250.147 47.7136 250.13 48.8885L250.109 48.9299H247.91C247.91 48.2917 247.78 47.834 247.527 47.557C247.272 47.2801 246.856 47.142 246.276 47.142C245.767 47.142 245.375 47.3605 245.105 47.796C244.832 48.235 244.697 48.813 244.697 49.5393V51.7278C244.697 52.4575 244.845 53.0408 245.144 53.4793C245.444 53.9197 245.873 54.1402 246.43 54.1402C246.948 54.1402 247.32 54.0009 247.551 53.7237C247.78 53.4467 247.894 52.9838 247.894 52.3352H250.098Z" fill="#E9531D"/>
<path d="M256.805 53.085C256.805 52.7133 256.691 52.4295 256.462 52.2319C256.236 52.0339 255.824 51.8223 255.226 51.5969C254.014 51.1789 253.117 50.731 252.533 50.2565C251.944 49.7815 251.652 49.0986 251.652 48.2069C251.652 47.3348 251.992 46.6275 252.674 46.0892C253.358 45.5501 254.226 45.28 255.279 45.28C256.388 45.28 257.284 45.5589 257.962 46.1146C258.641 46.6685 258.969 47.4535 258.945 48.4636L258.933 48.5085H256.737C256.737 48.0177 256.612 47.6596 256.362 47.4377C256.113 47.2157 255.736 47.1055 255.233 47.1055C254.823 47.1055 254.496 47.2125 254.262 47.4276C254.024 47.6411 253.907 47.906 253.907 48.2227C253.907 48.5255 254.028 48.7699 254.272 48.9536C254.515 49.1381 254.968 49.3682 255.633 49.6454C256.763 50.0035 257.617 50.439 258.197 50.9534C258.776 51.4696 259.066 52.1735 259.066 53.0714C259.066 53.9868 258.731 54.7045 258.061 55.2224C257.395 55.7405 256.506 55.9985 255.399 55.9985C254.296 55.9985 253.363 55.7193 252.597 55.1639C251.832 54.6098 251.461 53.7338 251.483 52.5431L251.497 52.5002H253.7C253.7 53.1059 253.838 53.5363 254.117 53.7888C254.395 54.0455 254.824 54.1728 255.399 54.1728C255.872 54.1728 256.226 54.0727 256.457 53.8719C256.689 53.6739 256.805 53.4105 256.805 53.085Z" fill="#E9531D"/>
<path d="M55.9047 7.54178L78.4651 32.7378C79.9878 34.4553 82.8506 35.3137 87.0519 35.3137C89.4275 35.3137 91.6801 34.9455 93.8115 34.2109C96.7958 33.29 98.2876 31.8808 98.2876 29.9797C98.2876 29.245 97.9528 28.5086 97.2828 27.7734L74.8125 2.57591C73.2899 0.858476 70.429 0 66.226 0C63.8501 0 61.5978 0.36771 59.4661 1.10287C56.4838 2.02325 54.99 3.43438 54.99 5.33407C54.99 6.13064 55.2942 6.86703 55.9047 7.54178ZM5.57403 34.5791C7.33944 35.0693 9.22612 35.3137 11.2362 35.3137C15.5603 35.3137 18.452 34.4553 19.9151 32.7378L37.087 12.5989L46.9519 23.3583C48.0474 24.5849 49.9669 25.1975 52.7067 25.1975C54.2294 25.1975 55.7217 24.9534 57.1829 24.4611C59.1313 23.849 60.1057 22.9301 60.1057 21.7027C60.1057 21.0901 59.8921 20.5693 59.4661 20.1392L42.2022 2.85089C41.8384 2.54459 41.3801 2.26961 40.8336 2.02324C38.5788 0.674004 35.6564 0 32.0638 0C27.8611 0 24.9983 0.858476 23.4771 2.57591L1.00531 27.7734C0.335349 28.5086 0 29.245 0 29.9797C0 32.0034 1.85801 33.5364 5.57403 34.5791Z" fill="black"/>
<path d="M109.394 35.3137C107.201 35.3137 105.07 34.9766 103 34.3021C100.137 33.4432 98.707 32.1252 98.707 30.3479V4.96587C98.707 3.18801 100.137 1.87009 103 1.01162C105.07 0.337125 107.201 0 109.394 0C111.587 0 113.718 0.337125 115.788 1.01162C118.651 1.87009 120.081 3.18801 120.081 4.96587V30.3479C120.081 32.0653 118.651 33.3832 115.788 34.3021C113.718 34.9766 111.587 35.3137 109.394 35.3137Z" fill="#FF5200"/>
<path d="M150.655 18.7485C150.655 17.6491 151.717 16.7941 153.84 16.183C155.355 15.7546 156.902 15.5117 158.48 15.4498H167.122C168.458 15.4498 169.731 15.2352 170.943 14.8064C172.642 14.2542 173.491 13.4265 173.491 12.3237V8.64464C173.491 7.11143 171.353 6.34371 167.076 6.34371H151.223C146.946 6.34371 144.81 7.11143 144.81 8.64464V9.01284V30.3479C144.81 32.0653 143.378 33.3813 140.517 34.3021C138.507 34.9147 136.376 35.221 134.121 35.221C131.93 35.221 129.799 34.9147 127.729 34.3021C124.866 33.3813 123.434 32.0653 123.434 30.3479V10.3912C123.434 10.3293 123.464 10.0849 123.526 9.65627C124.013 6.28379 126.905 3.73871 132.203 2.02324C136.1 0.674004 140.181 0 144.444 0H171.208C180.22 0 186.706 1.37982 190.664 4.13822C192.917 5.67119 194.044 7.2954 194.044 9.01284V11.771C194.044 14.6517 192.004 17.1038 187.923 19.1271C186.279 19.9239 184.238 20.5986 181.803 21.1488L191.303 26.2077C193.131 27.2403 194.044 28.4842 194.044 29.9415C194.044 31.7003 192.509 33.0666 189.439 34.0373C187.152 34.8269 184.925 35.221 182.758 35.221C180.29 35.221 178.242 34.7786 176.619 33.8925L153.04 21.1316C151.45 20.4591 150.655 19.664 150.655 18.7485Z" fill="black"/>
<path d="M196.061 10.2999C196.061 5.57995 200.727 2.48269 210.057 1.01162C214.203 0.337125 220.484 0 228.9 0H251.77C253.355 0 254.91 0.211103 256.435 0.634543C258.569 1.24048 259.636 2.11646 259.636 3.26397C259.636 4.4132 258.567 5.28918 256.433 5.89512C254.846 6.31831 253.289 6.52966 251.763 6.52966H235.837C228.635 6.52966 223.816 6.71537 221.373 7.08899C218.199 7.58469 216.613 8.67029 216.613 10.3463C216.613 12.208 218.776 13.3871 223.1 13.8825C224.439 14.0081 227.179 14.07 231.32 14.07C238.689 14.07 244.23 14.4382 247.944 15.1746C255.739 16.7078 259.636 19.7416 259.636 24.2787C259.636 31.2049 248.706 34.6703 226.844 34.6703H203.916C202.455 34.6703 200.933 34.4587 199.349 34.0353C197.156 33.3697 196.061 32.4934 196.061 31.4064C196.061 30.2566 197.128 29.3806 199.259 28.7754C200.841 28.352 202.395 28.1416 203.916 28.1416H219.901C227.208 28.1416 231.99 27.9853 234.243 27.6755C237.47 27.1784 239.084 26.0928 239.084 24.4168C239.084 21.8717 234.791 20.6001 226.205 20.6001C206.109 20.6001 196.061 17.1657 196.061 10.2999Z" fill="black"/>
</svg>
