<svg width="225" height="48" viewBox="0 0 225 48" fill="none" xmlns="http://www.w3.org/2000/svg">
<path d="M5.4268 45.3804H5.45286L6.84123 39.2726H8.72709V47.9999H7.30131V42.3774L7.27525 42.3717L5.92056 47.9999H4.96336L3.63349 42.4553L3.60742 42.4625V47.9999H2.18164V39.2726H4.05172L5.4268 45.3804Z" fill="white"/>
<path d="M23.9988 47.9999H21.5757L17.7443 42.5082L17.6999 42.5205V47.9999H15.2715V39.2726H17.6999L21.5332 44.7559L21.5757 44.7447V39.2726H23.9988V47.9999Z" fill="white"/>
<path d="M26.1818 47.9999H24V39.2726H26.1818V47.9999Z" fill="white"/>
<path d="M37.0906 47.9999H34.6672L30.8361 42.5082L30.7917 42.5205V47.9999H28.3633V39.2726H30.7917L34.625 44.7559L34.6672 44.7447V39.2726H37.0906V47.9999Z" fill="white"/>
<path d="M43.6353 46.7069C43.3541 47.064 42.9571 47.3683 42.4448 47.6221C41.9339 47.8733 41.2771 47.9999 40.4729 47.9999C39.4693 47.9999 38.655 47.6774 38.0295 47.0336C37.4021 46.3883 37.0898 45.5502 37.0898 44.5221V42.752C37.0898 41.7304 37.3951 40.8962 38.0038 40.2456C38.6127 39.5975 39.3969 39.2726 40.3578 39.2726C41.3905 39.2726 42.1708 39.5152 42.6989 39.9989C43.2266 40.4814 43.4803 41.1431 43.4624 41.9812L43.4507 42.0173H41.6897C41.6897 41.6007 41.5849 41.2932 41.3737 41.0907C41.162 40.8894 40.8428 40.7876 40.4185 40.7876C39.9818 40.7876 39.6287 40.9692 39.3614 41.3291C39.0949 41.6916 38.9614 42.1604 38.9614 42.7393V44.5221C38.9614 45.1116 39.0949 45.5874 39.3603 45.9461C39.6242 46.3055 39.9958 46.4865 40.4729 46.4865C40.8187 46.4865 41.0897 46.4561 41.2885 46.398C41.4855 46.3402 41.6417 46.2618 41.7565 46.1652V44.6502H40.3235V43.3459H43.6353V46.7069Z" fill="white"/>
<path d="M49.2629 43.351C49.0549 43.0173 48.9013 42.7087 48.8013 42.4246C48.7025 42.1406 48.6516 41.8526 48.6516 41.5631C48.6516 40.8288 48.8373 40.2638 49.2109 39.8668C49.5856 39.471 50.0991 39.2726 50.7511 39.2726C51.2894 39.2726 51.7294 39.471 52.0674 39.8668C52.4044 40.2638 52.5735 40.7447 52.5735 41.3112C52.5735 41.7273 52.511 42.0855 52.3875 42.3861C52.2641 42.6881 52.0766 42.954 51.8256 43.1869L51.3157 43.5947L52.5123 45.1745C52.628 44.9525 52.719 44.7115 52.7842 44.4508C52.8519 44.1903 52.8857 43.9203 52.8857 43.6362H54.2087C54.2087 44.2066 54.1513 44.7279 54.0353 45.2006C53.9211 45.6721 53.7353 46.0882 53.4801 46.4493L54.5455 47.8468L54.5339 47.8756H52.6552L52.278 47.3882C51.9831 47.5974 51.6889 47.7502 51.3949 47.8495C51.1011 47.9488 50.7785 47.9999 50.4243 47.9999C49.6844 47.9999 49.0951 47.7765 48.6567 47.3358C48.2183 46.8919 48 46.314 48 45.5991C48 45.1493 48.0963 44.7666 48.2872 44.4481C48.4787 44.1325 48.7739 43.7895 49.1706 43.4213L49.2629 43.351ZM50.5416 46.4851C50.6873 46.4851 50.8345 46.4672 50.9839 46.4328C51.1334 46.397 51.2781 46.3434 51.4169 46.2689L50.1085 44.568C49.9694 44.7072 49.8701 44.8489 49.813 44.9924C49.7548 45.1373 49.7261 45.2944 49.7261 45.4651C49.7261 45.7644 49.8053 46.0081 49.9628 46.1984C50.1213 46.3899 50.3137 46.4851 50.5416 46.4851ZM50.1397 41.5398C50.1397 41.683 50.1682 41.8293 50.2258 41.9782C50.2829 42.1297 50.3698 42.2884 50.4855 42.4591L50.7132 42.2965C50.9045 42.1576 51.0333 42.0206 51.0986 41.8898C51.1649 41.7563 51.1972 41.6116 51.1972 41.4516C51.1972 41.2736 51.1557 41.1183 51.0686 40.9872C50.9813 40.8548 50.855 40.7873 50.6899 40.7873C50.5221 40.7873 50.3895 40.8603 50.2891 41.0065C50.1877 41.1509 50.1397 41.3287 50.1397 41.5398Z" fill="white"/>
<path d="M67.6353 47.9999H65.8176V44.4866H62.9112V47.9999H61.0898V39.2726H62.9112V42.929H65.8176V39.2726H67.6353V47.9999Z" fill="white"/>
<path d="M73.7111 44.2655H71.3636V46.4409H74.1774V47.9999H69.8184V39.2726H74.182V40.8314H71.3636V42.7067H73.7111V44.2655Z" fill="white"/>
<path d="M80.7125 46.3034H78.5545L78.1357 47.9999H76.3633L78.7301 39.2726H79.6312V39.2782L79.6362 39.2726H80.5383L82.9087 47.9999H81.1363L80.7125 46.3034ZM78.944 44.7442H80.3234L79.6463 42.0359H79.6157L78.944 44.7442Z" fill="white"/>
<path d="M87.171 45.6325L87.2391 45.9501H87.2781L87.3443 45.6549L89.2733 39.2726H91.6374L88.4873 47.9999H86.0483L82.9102 39.2726H85.2675L87.171 45.6325Z" fill="white"/>
<path d="M94.8923 43.0849H94.9226L96.3631 39.2726H98.1822L95.7274 44.9304V47.9999H94.052V44.8413L91.6367 39.2726H93.4553L94.8923 43.0849Z" fill="white"/>
<path d="M113.456 47.9999H111.638L108.765 42.5082L108.731 42.5205V47.9999H106.91V39.2726H108.731L111.606 44.7559L111.638 44.7447V39.2726H113.456V47.9999Z" fill="white"/>
<path d="M115.637 47.9999V39.2726H118.708C119.695 39.2726 120.521 39.6071 121.184 40.2765C121.851 40.9463 122.182 41.8045 122.182 42.8497V44.4215C122.182 45.4724 121.851 46.3321 121.184 46.9987C120.521 47.6653 119.695 47.9999 118.708 47.9999H115.637ZM117.584 40.8316V46.4411H118.708C119.149 46.4411 119.514 46.254 119.799 45.8781C120.085 45.5023 120.229 45.017 120.229 44.4215V42.8385C120.229 42.251 120.085 41.7702 119.799 41.3943C119.514 41.0184 119.149 40.8316 118.708 40.8316H117.584Z" fill="white"/>
<path d="M130.909 39.2726V44.8495C130.909 45.834 130.607 46.6055 130.004 47.1621C129.401 47.72 128.616 47.9999 127.647 47.9999C126.67 47.9999 125.879 47.72 125.273 47.1621C124.666 46.6055 124.363 45.834 124.363 44.8495V39.2726H126.208V44.8495C126.208 45.3809 126.336 45.7836 126.591 46.0548C126.845 46.3273 127.197 46.463 127.647 46.463C128.093 46.463 128.442 46.3289 128.689 46.0575C128.938 45.788 129.064 45.3864 129.064 44.8495V39.2726H130.909Z" fill="white"/>
<path d="M137.035 45.6276C137.035 45.3242 136.903 45.094 136.64 44.9328C136.381 44.7713 135.906 44.599 135.218 44.4158C133.824 44.0754 132.791 43.7101 132.119 43.324C131.442 42.9378 131.106 42.3812 131.106 41.6558C131.106 40.9447 131.497 40.3698 132.282 39.9302C133.069 39.4919 134.068 39.2726 135.279 39.2726C136.557 39.2726 137.586 39.4984 138.367 39.951C139.146 40.4029 139.526 41.0413 139.498 41.8641L139.484 41.9H136.957C136.957 41.5002 136.813 41.2093 136.526 41.0302C136.239 40.8481 135.804 40.7587 135.226 40.7587C134.754 40.7587 134.378 40.8453 134.109 41.0204C133.836 41.1955 133.7 41.4104 133.7 41.6671C133.7 41.9154 133.84 42.1138 134.121 42.2628C134.4 42.4143 134.921 42.6015 135.686 42.826C136.986 43.1172 137.969 43.4714 138.634 43.8918C139.303 44.3122 139.637 44.8859 139.637 45.6165C139.637 46.362 139.252 46.945 138.481 47.3672C137.712 47.7888 136.689 47.9999 135.417 47.9999C134.149 47.9999 133.074 47.7724 132.193 47.3203C131.313 46.8681 130.886 46.1554 130.911 45.1852L130.927 45.1505H133.462C133.462 45.6439 133.621 45.994 133.942 46.2008C134.262 46.409 134.756 46.5126 135.417 46.5126C135.961 46.5126 136.367 46.4326 136.634 46.2684C136.901 46.1058 137.035 45.892 137.035 45.6276Z" fill="white"/>
<path d="M146.182 40.8314H143.893V47.9999H141.884V40.8314H139.637V39.2726H146.182V40.8314Z" fill="white"/>
<path d="M148.75 44.6553V47.9999H146.182V39.2726H150.036C151.317 39.2726 152.332 39.5054 153.083 39.9734C153.833 40.4414 154.21 41.0811 154.21 41.8911C154.21 42.3423 154.058 42.7305 153.758 43.0555C153.455 43.3786 153.01 43.6427 152.421 43.8455C153.101 43.9974 153.59 44.2495 153.888 44.6042C154.182 44.9574 154.33 45.3969 154.33 45.926V46.478C154.33 46.7048 154.373 46.9645 154.461 47.2552C154.546 47.5475 154.696 47.7556 154.909 47.8792V47.9999H152.257C152.053 47.8762 151.921 47.6581 151.861 47.3459C151.801 47.0335 151.769 46.74 151.769 46.4652V45.9377C151.769 45.522 151.629 45.2045 151.35 44.9845C151.072 44.7645 150.665 44.6553 150.127 44.6553H148.75ZM148.75 43.0963H150.049C150.567 43.0963 150.962 43.0033 151.237 42.8171C151.509 42.6314 151.647 42.3647 151.647 42.0173C151.647 41.6627 151.505 41.3762 151.225 41.1579C150.944 40.9395 150.546 40.8317 150.036 40.8317H148.75V43.0963Z" fill="white"/>
<path d="M158.166 43.0849H158.196L159.637 39.2726H161.456L159.001 44.9304V47.9999H157.325V44.8413L154.91 39.2726H156.729L158.166 43.0849Z" fill="white"/>
<path d="M167.745 44.6553V47.9999H165.818V39.2726H168.709C169.67 39.2726 170.432 39.5054 170.995 39.9734C171.557 40.4414 171.84 41.0811 171.84 41.8911C171.84 42.3423 171.726 42.7305 171.5 43.0555C171.273 43.3786 170.94 43.6427 170.499 43.8455C171.008 43.9974 171.375 44.2495 171.598 44.6042C171.819 44.9574 171.93 45.3969 171.93 45.926V46.478C171.93 46.7048 171.962 46.9645 172.028 47.2552C172.091 47.5475 172.204 47.7556 172.364 47.8792V47.9999H170.375C170.222 47.8762 170.124 47.6581 170.077 47.3459C170.032 47.0335 170.009 46.74 170.009 46.4652V45.9377C170.009 45.522 169.904 45.2045 169.694 44.9845C169.486 44.7645 169.18 44.6553 168.777 44.6553H167.745ZM167.745 43.0963H168.719C169.108 43.0963 169.403 43.0033 169.61 42.8171C169.814 42.6314 169.917 42.3647 169.917 42.0173C169.917 41.6627 169.811 41.3762 169.602 41.1579C169.39 40.9395 169.092 40.8317 168.709 40.8317H167.745V43.0963Z" fill="#E9531D"/>
<path d="M181.09 44.3984C181.09 45.4431 180.789 46.3047 180.188 46.983C179.586 47.6595 178.8 47.9999 177.83 47.9999C176.854 47.9999 176.061 47.6595 175.456 46.983C174.849 46.3047 174.545 45.4431 174.545 44.3984V42.8729C174.545 41.832 174.848 40.9721 175.453 40.2926C176.057 39.6133 176.847 39.2726 177.819 39.2726C178.787 39.2726 179.573 39.6133 180.18 40.2926C180.787 40.9721 181.09 41.832 181.09 42.8729V44.3984ZM179.307 42.8604C179.307 42.2555 179.177 41.7594 178.918 41.3706C178.658 40.9818 178.292 40.7873 177.819 40.7873C177.337 40.7873 176.966 40.9802 176.711 41.3663C176.456 41.7536 176.327 42.2523 176.327 42.8604V44.3984C176.327 45.0135 176.457 45.5134 176.716 45.9007C176.976 46.2911 177.347 46.4851 177.83 46.4851C178.299 46.4851 178.663 46.2911 178.92 45.9007C179.178 45.5134 179.307 45.0135 179.307 44.3984V42.8604Z" fill="#E9531D"/>
<path d="M183.271 47.9999V39.2726H186.088C187.158 39.2726 187.989 39.4725 188.584 39.8755C189.182 40.2765 189.479 40.8752 189.479 41.6699C189.479 42.0852 189.384 42.4543 189.196 42.7758C189.007 43.098 188.711 43.3404 188.31 43.5035C188.821 43.6169 189.202 43.8481 189.447 44.1999C189.693 44.5517 189.817 44.9575 189.817 45.4157C189.817 46.2682 189.535 46.9105 188.972 47.3461C188.408 47.7815 187.601 47.9999 186.551 47.9999H183.271ZM185.267 42.9108H186.053C186.535 42.9108 186.892 42.8257 187.129 42.6556C187.364 42.4867 187.484 42.2326 187.484 41.8966C187.484 41.5261 187.37 41.2557 187.141 41.0852C186.913 40.9151 186.561 40.8316 186.088 40.8316H185.267V42.9108ZM185.267 44.2538V46.4411H186.551C186.976 46.4411 187.295 46.3573 187.506 46.1873C187.718 46.0169 187.827 45.7559 187.827 45.404C187.827 45.0326 187.732 44.7503 187.545 44.559C187.358 44.3688 187.05 44.2655 186.621 44.2538H186.557H185.267Z" fill="#E9531D"/>
<path d="M198.545 44.3984C198.545 45.4431 198.243 46.3047 197.643 46.983C197.04 47.6595 196.255 47.9999 195.285 47.9999C194.309 47.9999 193.516 47.6595 192.911 46.983C192.303 46.3047 192 45.4431 192 44.3984V42.8729C192 41.832 192.301 40.9721 192.907 40.2926C193.511 39.6133 194.301 39.2726 195.274 39.2726C196.24 39.2726 197.028 39.6133 197.635 40.2926C198.241 40.9721 198.545 41.832 198.545 42.8729V44.3984ZM196.762 42.8604C196.762 42.2555 196.632 41.7594 196.371 41.3706C196.113 40.9818 195.747 40.7873 195.274 40.7873C194.792 40.7873 194.421 40.9802 194.166 41.3663C193.911 41.7536 193.783 42.2523 193.783 42.8604V44.3984C193.783 45.0135 193.912 45.5134 194.172 45.9007C194.429 46.2911 194.803 46.4851 195.285 46.4851C195.754 46.4851 196.117 46.2911 196.375 45.9007C196.633 45.5134 196.762 45.0135 196.762 44.3984V42.8604Z" fill="#E9531D"/>
<path d="M205.09 40.8314H202.801V47.9999H200.791V40.8314H198.545V39.2726H205.09V40.8314Z" fill="#E9531D"/>
<path d="M215.982 45.0162L215.988 45.0505C215.999 46.0179 215.821 46.7513 215.455 47.2501C215.09 47.7491 214.572 47.9999 213.902 47.9999C213.218 47.9999 212.671 47.6788 212.257 47.0381C211.843 46.397 211.637 45.5592 211.637 44.5211V42.7518C211.637 41.718 211.836 40.8812 212.234 40.2375C212.633 39.5952 213.159 39.2726 213.815 39.2726C214.516 39.2726 215.057 39.5233 215.44 40.0239C215.824 40.5254 216.01 41.2534 216 42.2097L215.988 42.243H214.74C214.74 41.7234 214.668 41.3511 214.524 41.1253C214.379 40.9006 214.143 40.7873 213.815 40.7873C213.526 40.7873 213.304 40.9666 213.151 41.3194C212.996 41.6776 212.919 42.1476 212.919 42.7391V44.5211C212.919 45.1153 213.004 45.591 213.173 45.9476C213.343 46.3063 213.586 46.4851 213.902 46.4851C214.195 46.4851 214.407 46.3722 214.538 46.1476C214.668 45.9215 214.732 45.544 214.732 45.0162H215.982Z" fill="#E9531D"/>
<path d="M222.775 45.6276C222.775 45.3242 222.677 45.094 222.48 44.9328C222.284 44.7713 221.929 44.599 221.413 44.4158C220.368 44.0754 219.592 43.7101 219.088 43.324C218.581 42.9378 218.329 42.3812 218.329 41.6558C218.329 40.9447 218.622 40.3698 219.211 39.9302C219.8 39.4919 220.55 39.2726 221.458 39.2726C222.417 39.2726 223.188 39.4984 223.774 39.951C224.36 40.4029 224.642 41.0413 224.622 41.8641L224.612 41.9H222.716C222.716 41.5002 222.609 41.2093 222.394 41.0302C222.178 40.8481 221.852 40.7587 221.418 40.7587C221.065 40.7587 220.784 40.8453 220.581 41.0204C220.376 41.1955 220.274 41.4104 220.274 41.6671C220.274 41.9154 220.379 42.1138 220.589 42.2628C220.799 42.4143 221.19 42.6015 221.764 42.826C222.739 43.1172 223.476 43.4714 223.976 43.8918C224.476 44.3122 224.727 44.8859 224.727 45.6165C224.727 46.362 224.438 46.945 223.859 47.3672C223.284 47.7888 222.516 47.9999 221.562 47.9999C220.612 47.9999 219.805 47.7724 219.144 47.3203C218.483 46.8681 218.163 46.1554 218.182 45.1852L218.194 45.1505H220.095C220.095 45.6439 220.215 45.994 220.455 46.2008C220.696 46.409 221.066 46.5126 221.562 46.5126C221.97 46.5126 222.275 46.4326 222.475 46.2684C222.675 46.1058 222.775 45.892 222.775 45.6276Z" fill="#E9531D"/>
<path d="M48.3976 6.52344L67.9295 28.3182C69.2496 29.8029 71.7262 30.5455 75.3638 30.5455C77.4202 30.5455 79.3706 30.2275 81.2158 29.5909C83.7989 28.7955 85.0909 27.576 85.0909 25.9314C85.0909 25.296 84.801 24.6589 84.221 24.0232L64.7675 2.22707C63.449 0.742355 60.972 0 57.3337 0C55.2767 0 53.3264 0.319383 51.4812 0.954793C48.8992 1.74966 47.6078 2.96965 47.6078 4.61406C47.6078 5.30367 47.8706 5.93909 48.3976 6.52344ZM4.82365 29.9084C6.35242 30.333 7.98587 30.5455 9.72737 30.5455C13.4696 30.5455 15.9732 29.8029 17.2398 28.3182L32.1065 10.8971L40.6471 20.2045C41.5953 21.2648 43.2573 21.7959 45.6292 21.7959C46.9474 21.7959 48.2394 21.584 49.5045 21.1593C51.1915 20.6292 52.0349 19.8338 52.0349 18.7737C52.0349 18.2424 51.8499 17.7929 51.4812 17.4206L36.5349 2.46577C36.2199 2.20082 35.8232 1.9621 35.3495 1.74966C33.398 0.584097 30.8679 0 27.7572 0C24.1204 0 21.6407 0.742355 20.3237 2.22707L0.868695 24.0232C0.288679 24.6589 0 25.296 0 25.9314C0 27.6827 1.60691 29.008 4.82365 29.9084Z" fill="white"/>
<path d="M94.9082 30.5455C92.8934 30.5455 90.9354 30.254 89.034 29.6713C86.4039 28.9275 85.0898 27.7881 85.0898 26.2506V4.2951C85.0898 2.75758 86.4039 1.61701 89.034 0.874381C90.9354 0.291457 92.8934 0 94.9082 0C96.9227 0 98.8804 0.291457 100.782 0.874381C103.412 1.61701 104.726 2.75758 104.726 4.2951V26.2506C104.726 27.7354 103.412 28.8747 100.782 29.6713C98.8804 30.254 96.9227 30.5455 94.9082 30.5455Z" fill="#FF5200"/>
<path d="M130.462 16.2593C130.462 15.3067 131.38 14.5638 133.217 14.0338C134.528 13.6623 135.867 13.4522 137.23 13.3981H144.71C145.865 13.3981 146.966 13.2117 148.014 12.8401C149.484 12.3614 150.219 11.6437 150.219 10.6864V7.49636C150.219 6.16743 148.369 5.50236 144.67 5.50236H130.953C127.253 5.50236 125.403 6.16743 125.403 7.49636V7.81633V26.3189C125.403 27.8074 124.165 28.9494 121.688 29.7468C119.951 30.2781 118.107 30.5455 116.157 30.5455C114.26 30.5455 112.417 30.2781 110.624 29.7468C108.149 28.9494 106.91 27.8074 106.91 26.3189V9.01268C106.91 8.95858 106.937 8.74729 106.99 8.37443C107.412 5.44973 109.914 3.24323 114.498 1.75468C117.869 0.584412 121.4 0 125.087 0H148.244C156.041 0 161.653 1.1966 165.078 3.58977C167.027 4.91821 168.001 6.32778 168.001 7.81633V10.2093C168.001 12.7065 166.237 14.8321 162.706 16.5868C161.283 17.2784 159.518 17.8626 157.41 18.3412L165.631 22.7279C167.212 23.6236 168.001 24.7026 168.001 25.9648C168.001 27.4903 166.673 28.6751 164.017 29.5179C162.039 30.2021 160.112 30.5455 158.237 30.5455C156.102 30.5455 154.33 30.1608 152.925 29.3931L132.525 18.3251C131.15 17.7421 130.462 17.0536 130.462 16.2593Z" fill="white"/>
<path d="M170.182 9.07472C170.182 4.91606 174.185 2.18803 182.19 0.892097C185.747 0.296881 191.138 0 198.356 0H217.978C219.337 0 220.671 0.186484 221.979 0.559415C223.811 1.09182 224.727 1.86466 224.727 2.87549C224.727 3.88854 223.811 4.65968 221.978 5.1938C220.617 5.56673 219.281 5.75319 217.972 5.75319H204.308C198.129 5.75319 193.994 5.9171 191.899 6.24537C189.177 6.6821 187.815 7.63845 187.815 9.11471C187.815 10.7556 189.669 11.7954 193.38 12.2321C194.529 12.3413 196.879 12.3963 200.433 12.3963C206.754 12.3963 211.508 12.7214 214.696 13.3686C221.383 14.7205 224.727 17.3928 224.727 21.3905C224.727 27.4936 215.348 30.5455 196.592 30.5455H176.921C175.668 30.5455 174.362 30.359 173.003 29.9861C171.122 29.4002 170.182 28.6288 170.182 27.67C170.182 26.6569 171.097 25.886 172.926 25.3534C174.283 24.9804 175.616 24.794 176.921 24.794H190.636C196.906 24.794 201.007 24.6571 202.94 24.384C205.708 23.9456 207.094 22.9894 207.094 21.5115C207.094 19.2709 203.411 18.1492 196.044 18.1492C178.802 18.1492 170.182 15.1245 170.182 9.07472Z" fill="white"/>
</svg>
