<svg width="76" height="121" viewBox="0 0 76 121" fill="none" xmlns="http://www.w3.org/2000/svg">
<line x1="20" y1="22" x2="20" y2="14" stroke="#FF5200" stroke-width="2" stroke-linecap="round"/>
<line x1="24" y1="18" x2="16" y2="18.0001" stroke="#FF5200" stroke-width="2" stroke-linecap="round"/>
<line x1="57" y1="22" x2="57" y2="14" stroke="#FF5200" stroke-width="2" stroke-linecap="round"/>
<line x1="61" y1="18" x2="53" y2="18.0001" stroke="#FF5200" stroke-width="2" stroke-linecap="round"/>
<line x1="38.3008" y1="11.5" x2="38.3008" y2="1.5" stroke="#FF5200" stroke-width="3" stroke-linecap="round"/>
<line x1="43.5" y1="6.70003" x2="33.5" y2="6.70014" stroke="#FF5200" stroke-width="3" stroke-linecap="round"/>
<g clip-path="url(#clip0_1159_4142)">
<path d="M41.1865 31.75C42.0319 31.75 42.8427 32.0858 43.4404 32.6836C44.0382 33.2814 44.374 34.0921 44.374 34.9375V60.4375C44.374 61.2829 44.7099 62.0936 45.3076 62.6914C45.9054 63.2892 46.7162 63.625 47.5615 63.625C48.4069 63.625 49.2177 63.2892 49.8154 62.6914C50.4132 62.0936 50.749 61.2829 50.749 60.4375V41.3125C50.749 40.4671 51.0849 39.6564 51.6826 39.0586C52.2804 38.4608 53.0912 38.125 53.9365 38.125C54.7819 38.125 55.5927 38.4608 56.1904 39.0586C56.7882 39.6564 57.124 40.4671 57.124 41.3125V66.8125C57.124 67.6579 57.4599 68.4686 58.0576 69.0664C58.6554 69.6642 59.4662 70 60.3115 70C61.1569 70 61.9677 69.6642 62.5654 69.0664C63.1632 68.4686 63.499 67.6579 63.499 66.8125V54.0625C63.4982 53.2171 63.8332 52.406 64.4304 51.8077C65.0276 51.2093 65.838 50.8727 66.6834 50.8718C67.5287 50.871 68.3398 51.206 68.9382 51.8032C69.5366 52.4003 69.8732 53.2107 69.874 54.0561V79.5625C69.874 83.1899 68.2612 87.7926 65.8323 92.5548C63.448 97.2213 60.4773 101.658 58.1759 104.833C56.6077 106.994 54.013 108.25 51.157 108.25H39.4908C34.8434 108.25 30.5212 104.68 28.3664 99.58C24.6434 90.7825 18.7274 83.5469 13.8314 78.5553C11.8209 76.5055 9.70809 74.5586 7.50104 72.7221L7.41179 72.652C8.11304 71.9316 8.75054 71.4535 9.33704 71.1348C10.2216 70.6244 11.2538 70.431 12.2632 70.5865C14.4307 70.8989 16.9807 72.6201 19.8048 75.4443C20.2506 75.8912 20.8191 76.1957 21.4381 76.3191C22.0572 76.4426 22.699 76.3795 23.2821 76.1378C23.8653 75.896 24.3635 75.4866 24.7137 74.9614C25.0638 74.4361 25.2502 73.8188 25.249 73.1875V41.3125C25.2431 40.4671 25.5733 39.654 26.1669 39.0521C26.7604 38.4501 27.5688 38.1086 28.4142 38.1027C29.2596 38.0968 30.0727 38.4269 30.6747 39.0205C31.2766 39.6141 31.6181 40.4225 31.624 41.2679V60.4375C31.624 61.2829 31.9599 62.0936 32.5576 62.6914C33.1554 63.2892 33.9662 63.625 34.8115 63.625C35.6569 63.625 36.4677 63.2892 37.0654 62.6914C37.6632 62.0936 37.999 61.2829 37.999 60.4375V41.3125V34.9375C37.999 34.0921 38.3349 33.2814 38.9326 32.6836C39.5304 32.0858 40.3412 31.75 41.1865 31.75V31.75ZM63.499 45.0419V41.3125C63.4997 39.7518 63.1184 38.2147 62.3884 36.8353C61.6583 35.4559 60.6018 34.2761 59.3109 33.399C58.02 32.5218 56.5341 31.974 54.9828 31.8032C53.4314 31.6325 51.8619 31.844 50.4112 32.4194C49.8586 30.3963 48.6564 28.611 46.9895 27.3384C45.3227 26.0657 43.2837 25.3763 41.1865 25.3763C39.0894 25.3763 37.0504 26.0657 35.3836 27.3384C33.7167 28.611 32.5145 30.3963 31.9619 32.4194C30.5112 31.844 28.9416 31.6325 27.3903 31.8032C25.839 31.974 24.3531 32.5218 23.0622 33.399C21.7713 34.2761 20.7147 35.4559 19.9847 36.8353C19.2547 38.2147 18.8734 39.7518 18.874 41.3125V66.481C17.146 65.362 15.2059 64.6111 13.1748 64.2753C10.7936 63.9229 8.36291 64.3714 6.26429 65.5503C4.04579 66.7615 2.06954 68.7378 0.284539 71.4153C-0.176319 72.1039 -0.350871 72.945 -0.202113 73.7602C-0.0533552 74.5754 0.407017 75.3006 1.08141 75.7821L1.10691 75.8013L1.21529 75.8778L1.67429 76.2284C4.35119 78.3274 6.88949 80.5974 9.27329 83.0241C13.8697 87.7034 19.1992 94.2824 22.495 102.066C25.2809 108.658 31.4519 114.625 39.4908 114.625H51.157C55.8682 114.625 60.4645 112.54 63.3333 108.569C65.7367 105.26 68.9178 100.53 71.5124 95.449C74.0624 90.4637 76.249 84.739 76.249 79.5625V54.0561C76.2488 52.5264 75.8816 51.0191 75.1783 49.6607C74.4749 48.3023 73.4559 47.1324 72.2069 46.2493C70.9578 45.3663 69.5151 44.7957 67.9999 44.5856C66.4847 44.3755 64.9413 44.532 63.499 45.0419ZM63.499 66.8125V66.8507V66.8125Z" fill="#FF5200"/>
</g>
<defs>
<clipPath id="clip0_1159_4142">
<rect width="76" height="121" fill="white"/>
</clipPath>
</defs>
</svg>
