<svg width="61" height="62" viewBox="0 0 61 62" fill="none" xmlns="http://www.w3.org/2000/svg">
<path d="M49.8485 50.8827V32.7581C49.8485 27.7477 47.8879 23.037 44.3279 19.4941C40.7679 15.9512 36.0345 14 31 14C25.9654 14 21.2321 15.9512 17.6721 19.4941C14.1122 23.037 12.1515 27.7477 12.1515 32.7581V50.8827C9.29653 50.9683 7 53.3045 7 56.1663V60.7117C7 61.4232 7.57961 62 8.29455 62H53.7055C54.4204 62 55 61.4232 55 60.7117V56.1663C55 53.3046 52.7036 50.9683 49.8485 50.8827ZM14.7407 32.7581C14.7407 23.8356 22.0347 16.5767 31 16.5767C39.9654 16.5767 47.2593 23.8356 47.2593 32.7581V50.8787H14.7407V32.7581ZM52.4109 59.4233H9.58909V56.1663C9.58909 54.6715 10.8111 53.4554 12.3132 53.4554H13.4461H48.5539H49.6868C51.1889 53.4554 52.4108 54.6715 52.4108 56.1663V59.4233H52.4109Z" fill="#FF5200"/>
<path d="M30.6639 19C23.1295 19 17 25.1296 17 32.6639C17 33.4018 17.5982 34 18.3361 34C19.074 34 19.6723 33.4018 19.6723 32.6639C19.6723 26.6031 24.603 21.6722 30.6639 21.6722C31.4018 21.6722 32 21.0741 32 20.3361C32 19.5982 31.4019 19 30.6639 19Z" fill="#FF5200"/>
<path d="M30.5 9C31.3284 9 32 8.41121 32 7.68475V1.31525C32 0.588882 31.3284 0 30.5 0C29.6716 0 29 0.588882 29 1.31525V7.68475C29 8.41121 29.6716 9 30.5 9Z" fill="#FF5200"/>
<path d="M15.1118 10.622C15.3278 10.8741 15.611 11 15.8939 11C16.177 11 16.4601 10.874 16.676 10.6221C17.108 10.1181 17.108 9.30104 16.676 8.79707L12.8883 4.37795C12.4564 3.87397 11.756 3.87406 11.324 4.37795C10.892 4.88192 10.892 5.69897 11.324 6.20295L15.1118 10.622Z" fill="#FF5200"/>
<path d="M7.83009 21.4273C8.18316 20.8826 7.96821 20.1889 7.35 19.8778L1.92876 17.1497C1.31064 16.8387 0.523208 17.0279 0.169887 17.5726C-0.183176 18.1172 0.0318591 18.811 0.649977 19.1222L6.07122 21.8502C6.27294 21.9518 6.49262 22 6.70946 22C7.15706 22 7.5922 21.7943 7.83009 21.4273Z" fill="#FF5200"/>
<path d="M45.2905 11C45.6209 11 45.9511 10.8741 46.203 10.622L50.622 6.2029C51.126 5.69892 51.126 4.88188 50.622 4.37791C50.1181 3.87403 49.301 3.87403 48.7971 4.37791L44.378 8.797C43.874 9.30097 43.874 10.118 44.378 10.622C44.63 10.8741 44.9603 11 45.2905 11Z" fill="#FF5200"/>
<path d="M60.8513 17.5726C60.5423 17.0279 59.8532 16.8387 59.3123 17.1497L54.5687 19.8778C54.0278 20.1889 53.8397 20.8826 54.1487 21.4273C54.3569 21.7943 54.7376 22 55.1292 22C55.3189 22 55.5112 21.9518 55.6877 21.8502L60.4312 19.1222C60.9722 18.8111 61.1602 18.1173 60.8513 17.5726Z" fill="#FF5200"/>
</svg>
