<svg width="93" height="93" viewBox="0 0 93 93" fill="none" xmlns="http://www.w3.org/2000/svg">
<path d="M65.1 89.838V92.938H68.2V89.838H65.1ZM3.1 89.838H0V92.938H3.1V89.838ZM89.9 89.9V93H93V89.9H89.9ZM49.6 21.6876C49.5992 23.7223 49.1976 25.7369 48.4182 27.6163C47.6388 29.4958 46.4969 31.2034 45.0576 32.6416C43.6183 34.0797 41.9098 35.2203 40.0297 35.9982C38.1496 36.7761 36.1347 37.176 34.1 37.1752V43.3752C46.0846 43.3752 55.8 33.666 55.8 21.6876H49.6ZM34.1 37.1752C32.0653 37.176 30.0504 36.7761 28.1703 35.9982C26.2902 35.2203 24.5817 34.0797 23.1424 32.6416C21.7031 31.2034 20.5612 29.4958 19.7818 27.6163C19.0024 25.7369 18.6008 23.7223 18.6 21.6876H12.4C12.4008 24.5365 12.9627 27.3573 14.0537 29.989C15.1447 32.6207 16.7433 35.0117 18.7584 37.0256C20.7734 39.0395 23.1653 40.6368 25.7977 41.7262C28.43 42.8157 31.2511 43.376 34.1 43.3752V37.1752ZM18.6 21.6876C18.6008 19.6529 19.0024 17.6383 19.7818 15.7589C20.5612 13.8794 21.7031 12.1718 23.1424 10.7336C24.5817 9.29549 26.2902 8.15491 28.1703 7.37702C30.0504 6.59914 32.0653 6.19919 34.1 6.2V8.86302e-07C31.2511 -0.000813426 28.43 0.559507 25.7977 1.64897C23.1653 2.73843 20.7734 4.3357 18.7584 6.34958C16.7433 8.36346 15.1447 10.7545 14.0537 13.3862C12.9627 16.0179 12.4008 18.8387 12.4 21.6876H18.6ZM34.1 6.2C42.6622 6.2 49.6 13.1378 49.6 21.6876H55.8C55.7992 18.8387 55.2373 16.0179 54.1463 13.3862C53.0553 10.7545 51.4567 8.36346 49.4416 6.34958C47.4266 4.3357 45.0347 2.73843 42.4023 1.64897C39.77 0.559507 36.9489 -0.000813426 34.1 8.86302e-07V6.2ZM65.1 86.738H3.1V92.938H65.1V86.738ZM6.2 89.838V89.8194V89.7946V89.7636V89.7388V89.714V89.6892V89.6644V89.6396V89.6086V89.5838V89.559V89.5342V89.5094V89.4846V89.4598V89.4288V89.404V89.3792V89.3544V89.3296V89.3048V89.2738V89.249V89.2242V89.1994V89.1746V89.1498V89.125V89.1002V89.0692V89.0444V89.0196V88.9948V88.97V88.9452V88.9204V88.8894V88.8646V88.8398V88.815V88.7902V88.7654V88.7406V88.7158V88.691V88.66V88.6352V88.6104V88.5856V88.5608V88.536V88.5112V88.4802V88.4554V88.4306V88.4058V88.381V88.3562V88.3314V88.3066V88.2818V88.2508V88.226V88.2012V88.1764V88.1516V88.1268V88.102V88.0772V88.0524V88.0276V87.9966V87.9718V87.947V87.9222V87.8974V87.8726V87.8478V87.823V87.7982V87.7734V87.7424V87.7176V87.6928V87.668V87.6432V87.6184V87.5936V87.5688V87.544V87.5192V87.4944V87.4696V87.4386V87.4138V87.389V87.3642V87.3394V87.3146V87.2898V87.265V87.2402V87.2154V87.1906V87.1658V87.141V87.11V87.0852V87.0604V87.0356V87.0108V86.986V86.9612V86.9364V86.9116V86.8868V86.862V86.8372V86.8124V86.7876V86.7628V86.738V86.707V86.6884V86.6574V86.6326V86.6078V86.583V86.5582V86.5334V86.5086V86.4838V86.459V86.4342V86.4094V86.3846V86.3598V86.335V86.3102V86.2854V86.2606V86.2358V86.211V86.1862V86.1614V86.1366V86.1056V86.0808V86.056V86.0312V86.0064V85.9816V85.9568V85.932V85.9072V85.8824V85.8576V85.8328V85.808V85.7832V85.7584V85.7336V85.7088V85.684V85.6592V85.6344V85.6096V85.5848V85.56V85.5352V85.5104V85.4856V85.4608V85.436V85.4112V85.3864V85.3616V85.3368V85.312V85.2872V85.2624V85.2376V85.2128V85.188V85.1632V85.1384V85.1136V85.0888V85.064V85.0392V85.0144V84.9896V84.9648V84.94V84.9152V84.8904V84.8656V84.8408V84.816V84.7912V84.7664V84.7416V84.7168V84.6982V84.6672V84.6424V84.6238V84.599V84.5742V84.5494V84.5246V84.4998V84.475V84.4502V84.4254V84.4006V84.3758V84.351V84.3262V84.3014V84.2766V84.2518V84.227V84.2022V84.1774V84.1526V84.1278V84.103V84.0844V84.0596V84.0348V84.01V83.9852V83.9604V83.9356V83.9108V83.886V83.8612V83.8364V83.8116V83.7868V83.762V83.7372V83.7124V83.6876V83.669V83.6442V83.6194V83.5946V83.5698V83.545V83.5202V83.4954V83.4706V83.4458V83.421V83.3962V83.3776V83.3528V83.328V83.3032V83.2784V83.2536V83.2288V83.204V83.1792V83.1544V83.1296V83.111V83.0862V83.0614V83.0366V83.0118V82.987V82.9622V82.9374V82.9126V82.894V82.8692V82.8444V82.8196V82.7948V82.77V82.7452V82.7204V82.6956V82.677V82.6522V82.6274V82.6026V82.5778V82.553V82.5282V82.5034V82.4848V82.46V82.4352V82.4104V82.3856V82.3608V82.336V82.3174V82.2926V82.2678V82.243V82.2182V82.1934V82.1686V82.1438V82.1252V82.1004V82.0756V82.0508V82.026V82.0012V81.9764V81.9578V81.933V81.9082V81.8834V81.8586V81.84V81.8152V81.7904V81.7656V81.7408V81.716V81.6974V81.6726V81.6478V81.623V81.5982V81.5734V81.5486V81.53V81.5052V81.4804V81.4556V81.4308V81.4122V81.3874V81.3626V81.3378V81.313V81.2882V81.2696V81.2448V81.22V81.1952V81.1704V81.1518V81.127V81.1022V81.0774V81.0526V81.034V81.0092V80.9844V80.9596V80.941V80.9162V80.8914V80.8666V80.8418V80.8232V80.7984V80.7736V80.7488V80.7302V80.7054V80.6806V80.6558V80.631V80.6124V80.5876V80.5628V80.538V80.5132V80.4946V80.4698V80.445V80.4202V80.4016V80.3768V80.352V80.3272V80.3086V80.2838V80.259V80.2342V80.2156V80.1908V80.166V80.1412V80.1226V80.0978V80.073V80.0482V80.0296V80.0048V79.98V79.9552V79.9366V79.9118V79.887V79.8684V79.8436V79.8188V79.794V79.7754V79.7506V79.7258V79.701V79.6824V79.6576V79.6328V79.6142V79.5894V79.5646V79.5398V79.5212V79.4964V79.4716V79.453V79.4282V79.4034V79.3786V79.36V79.3352V79.3104V79.2918V79.267V79.2422V79.2174V79.1988V79.174V79.1554V79.1306V79.1058V79.081V79.0624V79.0376V79.0128V78.9942V78.9694V78.9446V78.926V78.9012V78.8764V78.8578V78.833V78.8082V78.7896V78.7648V78.74V78.7214V78.6966V78.6718V78.6532V78.6284V78.6036V78.585V78.5602V78.5354V78.5168V78.492V78.4672V78.4486V78.4238V78.399V78.3804V78.3556V78.3308V78.3122V78.2874V78.2688V78.244V78.2192V78.2006V78.1758V78.151V78.1324V78.1076V78.089V78.0642V78.0394V78.0208V77.996V77.9712V77.9526V77.9278V77.9092V77.8844V77.8596V77.841V77.8162V77.7976V77.7728V77.748V77.7294V77.7046V77.686V77.6612V77.6364V77.6178V77.593V77.5744V77.5496V77.5248V77.5062V77.4814V77.4628H0V89.838H6.2ZM21.7 61.9628H46.5V55.7628H21.7V61.9628ZM62 77.4628V89.838H68.2V89.8132V89.7884V89.7574V89.7326V89.7078V89.683V89.6582V89.6334V89.6024V89.5776V89.5528V89.528V89.5032V89.4784V89.4536V89.4226V89.3978V89.373V89.3482V89.3234V89.2986V89.2676V89.2428V89.218V89.1932V89.1684V89.1436V89.1188V89.094V89.063V89.0382V89.0134V88.9886V88.9638V88.939V88.9142V88.8832V88.8584V88.8336V88.8088V88.784V88.7592V88.7344V88.7096V88.6848V88.6538V88.629V88.6042V88.5794V88.5546V88.5298V88.505V88.474V88.4492V88.4244V88.3996V88.3748V88.35V88.3252V88.3004V88.2756V88.2446V88.2198V88.195V88.1702V88.1454V88.1206V88.0958V88.071V88.0462V88.0214V87.9904V87.9656V87.9408V87.916V87.8912V87.8664V87.8416V87.8168V87.792V87.7672V87.7362V87.7114V87.6866V87.6618V87.637V87.6122V87.5874V87.5626V87.5378V87.513V87.4882V87.4634V87.4324V87.4076V87.3828V87.358V87.3332V87.3084V87.2836V87.2588V87.234V87.2092V87.1844V87.1596V87.1348V87.1038V87.079V87.0542V87.0294V87.0046V86.9798V86.955V86.9302V86.9054V86.8806V86.8558V86.831V86.8062V86.7814V86.7566V86.7318V86.7008V86.6822V86.6512V86.6264V86.6016V86.5768V86.552V86.5272V86.5024V86.4776V86.4528V86.428V86.4032V86.3784V86.3536V86.3288V86.304V86.2792V86.2544V86.2296V86.2048V86.18V86.1552V86.1304V86.0994V86.0746V86.0498V86.025V86.0002V85.9754V85.9506V85.9258V85.901V85.8762V85.8514V85.8266V85.8018V85.777V85.7522V85.7274V85.7026V85.6778V85.653V85.6282V85.6034V85.5786V85.5538V85.529V85.5042V85.4794V85.4546V85.4298V85.405V85.3802V85.3554V85.3306V85.3058V85.281V85.2562V85.2314V85.2066V85.1818V85.157V85.1322V85.1074V85.0826V85.0578V85.033V85.0082V84.9834V84.9586V84.9338V84.909V84.8842V84.8594V84.8346V84.8098V84.785V84.7602V84.7354V84.7106V84.692V84.661V84.6362V84.6176V84.5928V84.568V84.5432V84.5184V84.4936V84.4688V84.444V84.4192V84.3944V84.3696V84.3448V84.32V84.2952V84.2704V84.2456V84.2208V84.196V84.1712V84.1464V84.1216V84.0968V84.0782V84.0534V84.0286V84.0038V83.979V83.9542V83.9294V83.9046V83.8798V83.855V83.8302V83.8054V83.7806V83.7558V83.731V83.7062V83.6814V83.6628V83.638V83.6132V83.5884V83.5636V83.5388V83.514V83.4892V83.4644V83.4396V83.4148V83.39V83.3714V83.3466V83.3218V83.297V83.2722V83.2474V83.2226V83.1978V83.173V83.1482V83.1234V83.1048V83.08V83.0552V83.0304V83.0056V82.9808V82.956V82.9312V82.9064V82.8878V82.863V82.8382V82.8134V82.7886V82.7638V82.739V82.7142V82.6894V82.6708V82.646V82.6212V82.5964V82.5716V82.5468V82.522V82.4972V82.4786V82.4538V82.429V82.4042V82.3794V82.3546V82.3298V82.3112V82.2864V82.2616V82.2368V82.212V82.1872V82.1624V82.1376V82.119V82.0942V82.0694V82.0446V82.0198V81.995V81.9702V81.9516V81.9268V81.902V81.8772V81.8524V81.8338V81.809V81.7842V81.7594V81.7346V81.7098V81.6912V81.6664V81.6416V81.6168V81.592V81.5672V81.5424V81.5238V81.499V81.4742V81.4494V81.4246V81.406V81.3812V81.3564V81.3316V81.3068V81.282V81.2634V81.2386V81.2138V81.189V81.1642V81.1456V81.1208V81.096V81.0712V81.0464V81.0278V81.003V80.9782V80.9534V80.9348V80.91V80.8852V80.8604V80.8356V80.817V80.7922V80.7674V80.7426V80.724V80.6992V80.6744V80.6496V80.6248V80.6062V80.5814V80.5566V80.5318V80.507V80.4884V80.4636V80.4388V80.414V80.3954V80.3706V80.3458V80.321V80.3024V80.2776V80.2528V80.228V80.2094V80.1846V80.1598V80.135V80.1164V80.0916V80.0668V80.042V80.0234V79.9986V79.9738V79.949V79.9304V79.9056V79.8808V79.8622V79.8374V79.8126V79.7878V79.7692V79.7444V79.7196V79.6948V79.6762V79.6514V79.6266V79.608V79.5832V79.5584V79.5336V79.515V79.4902V79.4654V79.4468V79.422V79.3972V79.3724V79.3538V79.329V79.3042V79.2856V79.2608V79.236V79.2112V79.1926V79.1678V79.1492V79.1244V79.0996V79.0748V79.0562V79.0314V79.0066V78.988V78.9632V78.9384V78.9198V78.895V78.8702V78.8516V78.8268V78.802V78.7834V78.7586V78.7338V78.7152V78.6904V78.6656V78.647V78.6222V78.5974V78.5788V78.554V78.5292V78.5106V78.4858V78.461V78.4424V78.4176V78.3928V78.3742V78.3494V78.3246V78.306V78.2812V78.2626V78.2378V78.213V78.1944V78.1696V78.1448V78.1262V78.1014V78.0828V78.058V78.0332V78.0146V77.9898V77.965V77.9464V77.9216V77.903V77.8782V77.8534V77.8348V77.81V77.7914V77.7666V77.7418V77.7232V77.6984V77.6798V77.655V77.6302V77.6116V77.5868V77.5682V77.5434V77.5186V77.5V77.4752V77.4566H62V77.4628ZM46.5 61.9628C50.6109 61.9628 54.5533 63.5958 57.4602 66.5026C60.367 69.4095 62 73.3519 62 77.4628H68.2C68.2 71.7076 65.9137 66.1881 61.8442 62.1186C57.7747 58.049 52.2552 55.7628 46.5 55.7628V61.9628ZM6.2 77.4628C6.2 73.3519 7.83303 69.4095 10.7398 66.5026C13.6467 63.5958 17.5891 61.9628 21.7 61.9628V55.7628C15.9448 55.7628 10.4253 58.049 6.35578 62.1186C2.28624 66.1881 0 71.7076 0 77.4628H6.2ZM86.8 80.6V89.9H93V80.6H86.8ZM89.9 86.8H74.4V93H89.9V86.8ZM74.4 68.2C77.6887 68.2 80.8427 69.5064 83.1681 71.8319C85.4936 74.1573 86.8 77.3113 86.8 80.6H93C93 75.667 91.0404 70.936 87.5522 67.4478C84.064 63.9596 79.333 62 74.4 62V68.2ZM71.3 49.6C68.8335 49.6 66.468 48.6202 64.7239 46.8761C62.9798 45.132 62 42.7665 62 40.3H55.8C55.8 44.4109 57.433 48.3533 60.3398 51.2602C63.2467 54.167 67.1891 55.8 71.3 55.8V49.6ZM80.6 40.3C80.6 42.7665 79.6202 45.132 77.8761 46.8761C76.132 48.6202 73.7665 49.6 71.3 49.6V55.8C75.4109 55.8 79.3533 54.167 82.2602 51.2602C85.167 48.3533 86.8 44.4109 86.8 40.3H80.6ZM71.3 31C73.7665 31 76.132 31.9798 77.8761 33.7239C79.6202 35.468 80.6 37.8335 80.6 40.3H86.8C86.8 36.1891 85.167 32.2467 82.2602 29.3398C79.3533 26.433 75.4109 24.8 71.3 24.8V31ZM71.3 24.8C67.1891 24.8 63.2467 26.433 60.3398 29.3398C57.433 32.2467 55.8 36.1891 55.8 40.3H62C62 37.8335 62.9798 35.468 64.7239 33.7239C66.468 31.9798 68.8335 31 71.3 31V24.8Z" fill="black"/>
</svg>
