<svg width="98" height="91" viewBox="0 0 98 91" fill="none" xmlns="http://www.w3.org/2000/svg">
<path d="M96.355 14.525C95.8229 14.2178 95.2194 14.0561 94.605 14.0561C93.9906 14.0561 93.3871 14.2178 92.855 14.525L63 29.33V17.5C62.9982 16.9034 62.8439 16.3171 62.5518 15.7969C62.2597 15.2767 61.8394 14.8398 61.3309 14.5277C60.8224 14.2156 60.2426 14.0386 59.6465 14.0137C59.0504 13.9887 58.4578 14.1165 57.925 14.385L28 29.33V3.5C28 2.57174 27.6313 1.6815 26.9749 1.02513C26.3185 0.368749 25.4283 0 24.5 0H3.5C2.57174 0 1.6815 0.368749 1.02513 1.02513C0.368749 1.6815 0 2.57174 0 3.5V91H98V17.5C98.0012 16.9052 97.8508 16.3199 97.563 15.7994C97.2751 15.2788 96.8594 14.8402 96.355 14.525ZM70 84H56V59.5H70V84ZM91 84H77V56C77 55.0717 76.6313 54.1815 75.9749 53.5251C75.3185 52.8687 74.4283 52.5 73.5 52.5H52.5C51.5717 52.5 50.6815 52.8687 50.0251 53.5251C49.3687 54.1815 49 55.0717 49 56V84H7V7H21V40.67L56 23.17V40.67L91 23.17V84Z" fill="black"/>
</svg>
