<svg width="97" height="97" viewBox="0 0 97 97" fill="none" xmlns="http://www.w3.org/2000/svg">
<path d="M10.0312 0.96875L7.99037 2.89362L2.89362 7.99037L0.96875 10.0312L2.4405 12.4093L10.0312 25.0968L11.0499 26.9093H21.7038L36.2038 41.2969C23.248 54.3106 6.76513 70.8479 6.18513 71.4315C0.50475 77.1082 0.493874 86.41 6.29387 91.8221C11.9597 97.4119 21.1926 97.5569 26.5758 91.8221L26.6845 91.7061L49 69.2783L71.4315 91.8185L71.7686 92.0469C77.4599 97.4119 86.5115 97.4844 91.8221 91.8185V91.7097H91.9309C97.4844 86.0294 97.5424 76.7965 91.8221 71.4279L91.7061 71.3191L72.7909 52.5126C85.5182 51.3236 95.487 40.5755 95.6719 27.5907H95.7842C95.7988 27.5182 95.7842 27.4349 95.7842 27.3624V27.25C96.1395 23.0595 95.2333 19.0503 93.0655 15.5811L90.5788 11.735L73.6971 28.613L68.6004 23.2879L85.8191 6.06913L80.8347 4.03188C77.6553 2.63314 74.2234 1.89915 70.75 1.875C56.8155 1.875 45.375 13.3155 45.375 27.25C45.375 28.7652 45.7013 30.0811 45.9405 31.4405C44.3564 33.0283 43.1674 34.3296 41.2969 36.2001L26.9093 21.8125V11.0499L25.0968 10.0312L12.4093 2.4405L10.0312 0.96875ZM70.75 9.125C71.2575 9.125 71.6127 9.42225 72.1094 9.46575L58.4032 23.1719L60.8936 25.7782L71.0908 36.3125L73.5811 38.9189L87.9688 24.5312C88.0413 25.365 88.6357 25.974 88.5342 26.9093V27.25C88.5342 37.2332 80.3925 45.375 70.4092 45.375C69.0789 45.375 67.4658 45.0633 65.6533 44.6935L63.7248 44.3564L62.3654 45.7157L21.4754 86.7217H21.3594V86.8377C18.7856 89.6544 14.2797 89.7233 11.2782 86.7217V86.6094H11.1622C8.34562 84.0356 8.27675 79.5297 11.2782 76.5283C12.6521 75.1507 39.256 48.3185 52.2843 35.2939L53.7596 33.8221L53.1905 31.7812C52.8465 30.2943 52.657 28.7759 52.625 27.25C52.625 17.2668 60.7668 9.125 70.75 9.125ZM11.1622 10.0312L19.6593 15.244V18.869L18.869 19.6593H15.244L10.0312 11.1659L11.1622 10.0312ZM64.1779 54.0968L86.7254 76.5283V76.6406H86.8341C89.6544 79.2144 89.7233 83.7203 86.7254 86.7217H86.6094V86.8377C84.0356 89.6544 79.5297 89.7233 76.5283 86.7217L54.0968 64.1815L64.1779 54.0968Z" fill="black"/>
</svg>
